<svg width="88" height="88" viewBox="0 0 88 88" fill="none" xmlns="http://www.w3.org/2000/svg">
<g clip-path="url(#clip0_3582_3975)">
<path d="M43.476 87.9998C42.7775 87.5109 42.568 86.8474 42.6029 86.0093C42.6728 84.4029 42.6029 82.7966 42.6029 81.1204C32.9648 80.5617 24.6188 77.0696 17.7744 70.2601C10.9299 63.4506 7.40294 55.1045 6.84421 45.3617C5.20294 45.3617 3.59659 45.3267 1.95532 45.3617C1.11722 45.3966 0.453733 45.1871 -0.0351562 44.4887C-0.0351562 44.1394 -0.0351562 43.7902 -0.0351562 43.441C0.453733 42.7426 1.11722 42.5331 1.95532 42.568C3.56167 42.6379 5.16802 42.568 6.84421 42.568C7.40294 32.895 10.895 24.549 17.7045 17.7394C24.549 10.895 32.8601 7.36802 42.6029 6.80929C42.6029 5.27278 42.6029 3.77119 42.6029 2.26961C42.6029 1.95532 42.6029 1.64103 42.6029 1.32675C42.6728 0.523574 43.2315 -0.0351562 43.9648 -0.0351562C44.6982 -0.0351562 45.2918 0.523574 45.3268 1.32675C45.3617 2.79341 45.3268 4.26008 45.3268 5.69183C45.3268 6.04103 45.3268 6.35532 45.3268 6.80929C54.9648 7.36802 63.3109 10.8601 70.1553 17.6696C76.9998 24.514 80.5267 32.8252 81.0855 42.568C82.5871 42.568 84.0537 42.568 85.5553 42.568C85.8696 42.568 86.1839 42.568 86.4982 42.568C87.3712 42.6029 87.9648 43.1617 87.9648 43.9299C87.9648 44.6982 87.4061 45.2918 86.5331 45.2918C84.9966 45.3267 83.4252 45.2918 81.8887 45.2918C81.6791 45.2918 81.4347 45.2918 81.1204 45.2918C80.5966 54.9299 77.0696 63.276 70.2601 70.1204C63.4506 76.9648 55.1045 80.5267 45.3617 81.0506C45.3617 82.6918 45.3267 84.3331 45.3617 85.9394C45.3966 86.7775 45.1871 87.441 44.4887 87.9299C44.1744 87.9998 43.8252 87.9998 43.476 87.9998ZM78.3268 42.6379C77.5585 23.3617 61.3204 9.8823 45.3966 9.77754C45.3966 10.0918 45.3966 10.4061 45.3966 10.7204C45.3966 12.1871 45.4315 13.6537 45.3966 15.0855C45.3966 15.9585 44.768 16.5172 43.9998 16.5172C43.2664 16.5172 42.7077 15.9585 42.6728 15.1204C42.6379 14.8061 42.6728 14.4918 42.6728 14.1775C42.6728 12.7109 42.6728 11.2093 42.6728 9.74262C25.0029 10.2315 10.1966 25.0029 9.77754 42.6379C10.0569 42.6379 10.3363 42.6728 10.6156 42.6728C12.0125 42.6728 13.4093 42.6728 14.841 42.6728C15.9236 42.6728 16.5521 43.1617 16.5871 44.0347C16.5871 44.9077 15.9585 45.4315 14.9109 45.4315C14.0728 45.4315 13.2347 45.4315 12.4315 45.4315C11.5585 45.4315 10.6855 45.4315 9.81246 45.4315C10.5807 64.7077 26.7141 78.1172 42.7775 78.3267C42.7775 78.0474 42.7775 77.768 42.7775 77.4886C42.7775 76.0918 42.7775 74.695 42.7775 73.2633C42.7775 72.1807 43.3014 71.5521 44.1744 71.5871C45.0125 71.5871 45.5363 72.2156 45.5363 73.3331C45.5363 73.8918 45.5363 74.4855 45.5363 75.0442C45.5363 76.1617 45.5363 77.2791 45.5363 78.3617C63.1014 77.9426 77.9775 63.241 78.4315 45.5014C78.1522 45.5014 77.8728 45.4664 77.5934 45.4664C76.2315 45.4664 74.9045 45.4664 73.5426 45.4664C73.3331 45.4664 73.1236 45.4664 72.949 45.4664C72.1458 45.3966 71.622 44.768 71.6569 44.0347C71.6918 43.3013 72.2506 42.7426 73.0887 42.7426C74.695 42.6029 76.476 42.6379 78.3268 42.6379Z" fill="#282828"/>
<path d="M36.5617 37.9936C36.7363 37.6444 36.9109 37.3301 37.0157 37.0158C37.2601 36.3523 36.9458 35.8285 36.2125 35.7587C36.1426 35.7587 36.0379 35.7587 35.968 35.7587C33.1744 35.7587 33.9077 36.0031 32.2665 33.873C31.2887 32.5809 30.3109 31.2539 29.3331 29.9619C28.6696 29.0888 28.7395 28.2857 29.4379 27.7619C30.1363 27.238 30.9046 27.4476 31.568 28.3206C32.5807 29.6825 33.6284 31.0095 34.6061 32.3714C34.9204 32.8253 35.2696 33.0349 35.8284 32.965C36.5617 32.8952 37.295 32.965 38.1331 32.965C38.5522 32.4761 39.1109 31.8126 39.6696 31.1492C40.0887 30.6603 39.9839 29.3682 39.495 28.6698C36.6315 24.5841 33.768 20.4984 30.9395 16.4126C30.7649 16.1682 30.5903 15.9587 30.4855 15.6793C30.1363 14.9809 30.3109 14.3873 30.9046 13.9333C31.5331 13.4793 32.1617 13.5841 32.6855 14.1428C32.895 14.3523 33.0347 14.5968 33.2093 14.8412C35.7236 18.438 38.2379 22.0349 40.7522 25.5968C40.9268 25.8412 41.1014 26.1206 41.1712 26.1904C43.1268 26.1904 44.9426 26.1904 46.9331 26.1904C46.968 26.1206 47.1776 25.8761 47.3522 25.6317C49.8665 22.0349 52.3807 18.473 54.895 14.8761C55.0696 14.6317 55.2442 14.3523 55.4538 14.1079C55.9776 13.5841 56.6061 13.4793 57.2347 13.9333C57.7934 14.3523 57.968 14.946 57.6538 15.6095C57.549 15.8539 57.3744 16.0984 57.1998 16.3428C54.3363 20.4285 51.4728 24.5142 48.6442 28.5999C47.9458 29.5777 48.0157 30.6253 48.8188 31.4984C49.2379 31.9872 49.622 32.5111 49.9363 32.8952C50.7395 32.8952 51.4728 32.8603 52.2061 32.8952C52.7649 32.9301 53.149 32.7555 53.4982 32.2666C54.5109 30.8698 55.5585 29.5079 56.5712 28.146C57.1998 27.3428 57.968 27.1682 58.6315 27.6571C59.295 28.1809 59.3649 28.9492 58.7363 29.7873C57.4442 31.4984 56.1871 33.2444 54.8601 34.9206C54.5807 35.2698 53.9871 35.4793 53.4982 35.5841C53.0792 35.6888 52.5903 35.619 52.1363 35.619C51.0188 35.619 50.6696 36.1428 51.1236 37.1555C51.2284 37.3999 51.368 37.6095 51.5077 37.8539C51.9617 37.6444 52.4157 37.4349 52.8347 37.2253C53.603 36.8412 54.2315 36.946 54.8601 37.5745C55.9077 38.6571 56.9204 39.7047 58.003 40.7523C58.3173 41.0317 58.7363 41.2761 59.1553 41.3809C61.0061 41.7999 62.8569 42.1492 64.7077 42.5333C65.6855 42.7428 66.2093 43.4063 65.9998 44.2095C65.8252 45.0126 65.0919 45.3968 64.1141 45.2222C61.949 44.8031 59.7839 44.3841 57.6538 43.9301C57.3046 43.8603 56.9204 43.6158 56.6411 43.3714C55.7331 42.5333 54.8601 41.6603 54.0569 40.7523C53.568 40.2285 53.149 39.9841 52.4855 40.6126C52.7649 41.7999 53.0093 43.0222 53.3236 44.2793C53.3934 44.4888 53.6379 44.6634 53.8474 44.8031C54.8601 45.4666 55.8728 46.1301 56.8855 46.7238C57.6538 47.1777 57.8982 47.7714 57.7585 48.5746C57.3744 50.7746 56.9553 52.9745 56.6411 55.1745C56.5712 55.7333 56.676 56.4317 56.9204 56.9555C57.9331 59.1206 59.0157 61.2158 60.0633 63.346C60.168 63.5206 60.2379 63.6952 60.3427 63.8698C60.6919 64.7079 60.4474 65.4063 59.749 65.7555C59.0506 66.1047 58.2823 65.8603 57.8982 65.0571C56.8506 63.0317 55.9426 60.9365 54.7903 58.946C53.8823 57.3396 53.4633 55.7682 53.9871 53.9174C54.3712 52.5555 54.4061 51.0888 54.7553 49.692C54.9998 48.6793 54.5109 48.365 53.7426 48.0507C53.6379 49.5174 53.6379 50.9142 53.4633 52.346C52.695 59.0857 49.8315 64.8126 45.0474 69.5968C44.349 70.2952 43.5807 70.2603 42.8823 69.5269C37.295 63.7999 34.3617 56.9555 34.3617 48.8888C34.3617 48.6444 34.3617 48.3999 34.3617 48.1206C33.1744 48.5047 33.1046 48.5745 33.3141 49.7269C33.6633 51.7523 34.0125 53.7777 34.3268 55.8031C34.3966 56.1872 34.3617 56.6412 34.1871 56.9555C32.8601 59.6444 31.5331 62.3333 30.1363 65.0222C29.6125 66.0349 28.495 66.2095 27.8315 65.4412C27.3426 64.8825 27.4474 64.2888 27.7617 63.6952C28.9141 61.4253 30.0665 59.1555 31.149 56.8507C31.3585 56.3968 31.4633 55.8031 31.3934 55.3142C31.0792 53.0793 30.6601 50.8444 30.276 48.6444C30.1363 47.7714 30.3458 47.1079 31.149 46.7238C31.1839 46.7238 31.2188 46.6888 31.2188 46.6888C32.3363 45.9555 33.768 45.4317 34.5014 44.419C35.1998 43.4412 35.1998 41.9396 35.5141 40.6476C34.9903 40.0888 34.5014 40.0888 33.9776 40.7174C33.4538 41.346 32.7903 41.7999 32.3014 42.4285C31.4284 43.5111 30.3458 44.0698 28.949 44.2444C27.2379 44.4888 25.5268 44.9079 23.8157 45.2222C22.8379 45.3968 22.1046 45.0126 21.9649 44.1745C21.7903 43.3714 22.3141 42.7428 23.2919 42.5333C25.1426 42.1492 26.9934 41.7999 28.8442 41.3809C29.2284 41.3111 29.6474 41.0666 29.9268 40.8222C30.9744 39.8444 31.9522 38.7968 32.9649 37.7841C33.8379 36.9111 34.1871 36.8412 35.3046 37.365C35.7585 37.6444 36.1426 37.7841 36.5617 37.9936ZM44.2093 40.0888C42.4633 39.7745 40.822 39.4603 39.1458 39.146C35.13 47.9111 37.0506 59.6444 44.1046 66.7682C44.9427 65.6507 45.7807 64.5333 46.6188 63.4158C46.6887 63.3111 46.7585 63.1365 46.7236 63.0317C46.6887 61.0412 46.7934 59.0857 46.5839 57.1301C46.1649 53.2888 45.5363 49.4825 45.0125 45.6412C44.7331 43.7206 44.4538 41.8349 44.2093 40.0888ZM49.4474 57.1999C51.5776 51.0539 51.3331 44.9777 48.8538 39.0063C48.1553 39.2507 47.5617 39.4253 46.968 39.6349C47.7712 45.5015 48.6093 51.3333 49.4474 57.1999ZM43.895 37.2952C45.1522 37.0158 46.3395 36.7365 47.5617 36.4571C48.0855 36.3523 48.2601 36.073 47.9807 35.5841C47.6315 34.9206 47.2823 34.292 46.8982 33.6634C46.5839 33.1396 46.095 32.9301 45.4665 32.965C44.3839 33.0349 43.3014 32.965 42.2188 32.9999C41.9395 32.9999 41.5553 33.1047 41.4157 33.3142C40.8919 34.0476 40.4379 34.8507 39.9839 35.619C39.7395 36.038 39.9141 36.3174 40.368 36.4222C41.5204 36.7365 42.7077 37.0158 43.895 37.2952ZM42.6728 28.9142C42.6728 29.3682 42.6728 29.7872 42.6728 30.2063C43.5807 30.2063 44.4538 30.2063 45.2919 30.2063C45.2919 29.7523 45.2919 29.3333 45.2919 28.9142C44.3839 28.9142 43.5458 28.9142 42.6728 28.9142Z" fill="#282828"/>
</g>
<defs>
<clipPath id="clip0_3582_3975">
<rect width="88" height="88" fill="white"/>
</clipPath>
</defs>
</svg>
