<svg width="414" height="157" viewBox="0 0 414 157" fill="none" xmlns="http://www.w3.org/2000/svg">
<g clip-path="url(#clip0_3532_18949)">
<mask id="mask0_3532_18949" style="mask-type:luminance" maskUnits="userSpaceOnUse" x="34" y="62" width="53" height="95">
<path d="M86.2814 62.7834H34.5625V156.917H86.2814V62.7834Z" fill="white"/>
</mask>
<g mask="url(#mask0_3532_18949)">
<path d="M43.8454 109.809C43.8454 85.4252 62.4111 65.3544 86.1985 62.9493C84.6238 62.7834 83.1319 62.7004 81.5571 62.7004C55.6148 62.7004 34.5625 83.7665 34.5625 109.726C34.5625 135.685 55.6148 156.751 81.5571 156.751C83.1319 156.751 84.7066 156.668 86.1985 156.502C62.4111 154.263 43.8454 134.192 43.8454 109.809Z" fill="#DDDDDD"/>
</g>
<mask id="mask1_3532_18949" style="mask-type:luminance" maskUnits="userSpaceOnUse" x="17" y="32" width="70" height="125">
<path d="M86.1977 32.4285H17.8193V156.917H86.1977V32.4285Z" fill="white"/>
</mask>
<g mask="url(#mask1_3532_18949)">
<path d="M30.1689 94.6312C30.1689 62.3687 54.7851 35.8288 86.1977 32.6772C84.2085 32.5113 82.1365 32.3455 80.0644 32.3455C45.668 32.3455 17.8193 60.2123 17.8193 94.6312C17.8193 129.05 45.668 156.917 80.0644 156.917C82.1365 156.917 84.2085 156.834 86.1977 156.585C54.7851 153.517 30.1689 126.977 30.1689 94.6312Z" fill="#C2C1C1"/>
</g>
<mask id="mask2_3532_18949" style="mask-type:luminance" maskUnits="userSpaceOnUse" x="0" y="0" width="87" height="157">
<path d="M86.1982 0H0V157H86.1982V0Z" fill="white"/>
</mask>
<g mask="url(#mask2_3532_18949)">
<path d="M15.582 78.4585C15.582 37.7364 46.5802 4.22979 86.2811 0.331749C83.6288 0.165874 81.0594 0 78.4072 0C35.1423 0 0 35.1653 0 78.4585C0 121.835 35.1423 156.917 78.4072 156.917C81.0594 156.917 83.6288 156.751 86.1982 156.502C46.5802 152.687 15.582 119.181 15.582 78.4585Z" fill="#B7B6B6"/>
</g>
<path d="M182.674 70.5795L177.949 72.2382C174.8 68.8378 170.324 67.1791 164.605 67.1791C160.295 67.1791 156.731 68.2573 153.996 70.4966C151.261 72.7359 149.852 75.5557 149.852 79.0391C149.852 82.6054 151.178 85.5082 153.913 87.6645C156.649 89.8209 160.295 90.982 164.854 90.982C170.407 90.982 174.8 89.2404 177.949 85.8399L182.425 88.328C180.187 90.982 177.618 92.8896 174.717 94.0507C171.899 95.2118 168.418 95.7924 164.522 95.7924C158.969 95.7924 154.328 94.3825 150.681 91.6455C146.454 88.4939 144.382 84.2641 144.382 79.122C144.382 74.0629 146.537 69.916 150.764 66.6815C154.494 63.8616 159.052 62.4517 164.522 62.4517C172.396 62.4517 178.447 65.1886 182.674 70.5795Z" fill="#F4F4F4"/>
<path d="M230.082 79.122C230.082 84.2641 228.01 88.4939 223.7 91.6455C219.971 94.4654 215.412 95.7924 209.859 95.7924C204.306 95.7924 199.664 94.3825 195.935 91.5626C191.708 88.411 189.553 84.1812 189.553 79.122C189.553 74.0629 191.708 69.916 196.018 66.6815C199.747 63.8616 204.389 62.4517 209.859 62.4517C215.329 62.4517 219.888 63.8616 223.618 66.6815C228.01 69.916 230.082 74.0629 230.082 79.122ZM224.695 79.122C224.695 75.4728 223.12 72.487 219.971 70.1648C217.236 68.1743 213.92 67.1791 209.942 67.1791C205.549 67.1791 201.985 68.3402 199.25 70.5795C196.515 72.8188 195.106 75.6387 195.106 79.122C195.106 82.6883 196.432 85.5911 199.167 87.7475C201.902 89.9039 205.466 91.065 209.942 91.065C214.418 91.065 217.982 89.9868 220.634 87.7475C223.369 85.5082 224.695 82.6883 224.695 79.122Z" fill="#F4F4F4"/>
<path d="M273.845 63.447L256.854 94.8802H250.887L233.979 63.447H239.78L253.87 89.6552L268.043 63.447H273.845Z" fill="#F4F4F4"/>
<path d="M284.537 63.447H279.315V94.8802H284.537V63.447Z" fill="#F4F4F4"/>
<path d="M325.895 68.1744H310.893V94.8802H305.672V68.1744H290.67V63.447H325.895V68.1744Z" fill="#F4F4F4"/>
<path d="M367.254 94.8802H361.535L357.888 87.8305H336.67L333.024 94.8802H327.305L343.964 63.447H350.512L367.254 94.8802ZM355.402 83.1861L347.362 67.9256L339.24 83.1861H355.402Z" fill="#F4F4F4"/>
<path d="M402.645 94.8802H373.139V63.447H378.36V90.2357H402.645V94.8802Z" fill="#F4F4F4"/>
<path d="M414 63.447H408.778V94.8802H414V63.447Z" fill="#F4F4F4"/>
<path d="M134.685 94.8802H101.697V63.447H133.441V68.1744H106.919V76.2193H125.402V80.9468H106.919V90.2357H134.685V94.8802Z" fill="#F4F4F4"/>
</g>
<defs>
<clipPath id="clip0_3532_18949">
<rect width="414" height="157" fill="white"/>
</clipPath>
</defs>
</svg>
