<svg width="393" height="150" viewBox="0 0 393 150" fill="none" xmlns="http://www.w3.org/2000/svg">
<g clip-path="url(#clip0_3532_19048)">
<mask id="mask0_3532_19048" style="mask-type:luminance" maskUnits="userSpaceOnUse" x="32" y="59" width="50" height="91">
<path d="M81.9041 59.9841H32.8086V149.921H81.9041V59.9841Z" fill="white"/>
</mask>
<g mask="url(#mask0_3532_19048)">
<path d="M41.6206 104.913C41.6206 81.6164 59.2446 62.4404 81.8254 60.1425C80.3305 59.984 78.9143 59.9048 77.4194 59.9048C52.793 59.9048 32.8086 80.0316 32.8086 104.833C32.8086 129.635 52.793 149.762 77.4194 149.762C78.9143 149.762 80.4092 149.683 81.8254 149.524C59.2446 147.385 41.6206 128.209 41.6206 104.913Z" fill="#696968"/>
</g>
<mask id="mask1_3532_19048" style="mask-type:luminance" maskUnits="userSpaceOnUse" x="16" y="30" width="66" height="120">
<path d="M81.8259 30.9827H16.916V149.921H81.8259V30.9827Z" fill="white"/>
</mask>
<g mask="url(#mask1_3532_19048)">
<path d="M28.6391 90.412C28.6391 59.5879 52.0067 34.2314 81.8259 31.2203C79.9376 31.0618 77.9707 30.9033 76.0037 30.9033C43.3521 30.9033 16.916 57.5277 16.916 90.412C16.916 123.296 43.3521 149.921 76.0037 149.921C77.9707 149.921 79.9376 149.842 81.8259 149.604C52.0067 146.672 28.6391 121.315 28.6391 90.412Z" fill="#4B494A"/>
</g>
<mask id="mask2_3532_19048" style="mask-type:luminance" maskUnits="userSpaceOnUse" x="0" y="0" width="82" height="150">
<path d="M81.8258 0H0V150H81.8258V0Z" fill="white"/>
</mask>
<g mask="url(#mask2_3532_19048)">
<path d="M14.7916 74.9604C14.7916 36.0539 44.2174 4.0412 81.9045 0.316957C79.3868 0.158479 76.9477 0 74.43 0C33.3598 0 0 33.5975 0 74.9604C0 116.403 33.3598 149.921 74.43 149.921C76.9477 149.921 79.3868 149.762 81.8258 149.525C44.2174 145.88 14.7916 113.867 14.7916 74.9604Z" fill="#343434"/>
</g>
<path d="M173.408 67.4327L168.923 69.0175C165.934 65.7687 161.685 64.1839 156.256 64.1839C152.165 64.1839 148.782 65.214 146.185 67.3534C143.589 69.4929 142.251 72.187 142.251 75.5151C142.251 78.9224 143.51 81.6958 146.107 83.756C148.703 85.8162 152.165 86.9256 156.492 86.9256C161.764 86.9256 165.934 85.2615 168.923 82.0127L173.172 84.3899C171.048 86.9256 168.609 88.7481 165.855 89.8574C163.18 90.9668 159.875 91.5214 156.178 91.5214C150.906 91.5214 146.5 90.1744 143.038 87.5595C139.026 84.5484 137.059 80.5072 137.059 75.5943C137.059 70.7607 139.104 66.7988 143.117 63.7084C146.657 61.0143 150.985 59.6672 156.178 59.6672C163.652 59.6672 169.396 62.2821 173.408 67.4327Z" fill="#343434"/>
<path d="M218.412 75.5943C218.412 80.5072 216.445 84.5484 212.354 87.5595C208.814 90.2536 204.486 91.5214 199.215 91.5214C193.943 91.5214 189.537 90.1744 185.997 87.4802C181.984 84.4691 179.938 80.4279 179.938 75.5943C179.938 70.7607 181.984 66.7988 186.075 63.7084C189.616 61.0143 194.022 59.6672 199.215 59.6672C204.408 59.6672 208.735 61.0143 212.275 63.7084C216.445 66.7988 218.412 70.7607 218.412 75.5943ZM213.298 75.5943C213.298 72.1078 211.803 69.2552 208.814 67.0365C206.217 65.1347 203.07 64.1839 199.293 64.1839C195.123 64.1839 191.74 65.2932 189.144 67.4327C186.547 69.5721 185.21 72.2663 185.21 75.5943C185.21 79.0016 186.469 81.775 189.065 83.8352C191.662 85.8954 195.045 87.0048 199.293 87.0048C203.542 87.0048 206.925 85.9747 209.443 83.8352C212.039 81.6958 213.298 79.0016 213.298 75.5943Z" fill="#343434"/>
<path d="M259.955 60.6182L243.826 90.6499H238.161L222.11 60.6182H227.618L240.993 85.6578L254.447 60.6182H259.955Z" fill="#343434"/>
<path d="M270.104 60.6182H265.147V90.6499H270.104V60.6182Z" fill="#343434"/>
<path d="M309.365 65.1348H295.124V90.6499H290.168V65.1348H275.927V60.6182H309.365V65.1348Z" fill="#343434"/>
<path d="M348.625 90.6499H343.196L339.735 83.9145H319.593L316.131 90.6499H310.702L326.517 60.6182H332.732L348.625 90.6499ZM337.374 79.4771L329.742 64.8971L322.032 79.4771H337.374Z" fill="#343434"/>
<path d="M382.222 90.6499H354.212V60.6182H359.169V86.2125H382.222V90.6499Z" fill="#343434"/>
<path d="M393.001 60.6182H388.044V90.6499H393.001V60.6182Z" fill="#343434"/>
<path d="M127.853 90.6499H96.5391V60.6182H126.673V65.1348H101.496V72.821H119.041V77.3377H101.496V86.2125H127.853V90.6499Z" fill="#343434"/>
</g>
<defs>
<clipPath id="clip0_3532_19048">
<rect width="393" height="150" fill="white"/>
</clipPath>
</defs>
</svg>
