<svg width="460" height="175" viewBox="0 0 460 175" fill="none" xmlns="http://www.w3.org/2000/svg">
<mask id="mask0_2632_1311" style="mask-type:luminance" maskUnits="userSpaceOnUse" x="38" y="69" width="58" height="106">
<path d="M95.8678 69.9814H38.4023V174.907H95.8678V69.9814Z" fill="white"/>
</mask>
<g mask="url(#mask0_2632_1311)">
<path d="M48.7167 122.398C48.7167 95.2193 69.3453 72.8474 95.7757 70.1665C94.026 69.9816 92.3683 69.8892 90.6186 69.8892C61.7937 69.8892 38.4023 93.3704 38.4023 122.306C38.4023 151.242 61.7937 174.723 90.6186 174.723C92.3683 174.723 94.1181 174.63 95.7757 174.445C69.3453 171.949 48.7167 149.577 48.7167 122.398Z" fill="#DDDDDD"/>
</g>
<mask id="mask1_2632_1311" style="mask-type:luminance" maskUnits="userSpaceOnUse" x="19" y="36" width="77" height="139">
<path d="M95.7758 36.1465H19.7998V174.908H95.7758V36.1465Z" fill="white"/>
</mask>
<g mask="url(#mask1_2632_1311)">
<path d="M33.5215 105.481C33.5215 69.5196 60.8729 39.9369 95.7758 36.424C93.5656 36.2391 91.2633 36.0542 88.961 36.0542C50.7427 36.0542 19.7998 67.116 19.7998 105.481C19.7998 143.846 50.7427 174.908 88.961 174.908C91.2633 174.908 93.5656 174.815 95.7758 174.538C60.8729 171.118 33.5215 141.535 33.5215 105.481Z" fill="#C2C1C1"/>
</g>
<mask id="mask2_2632_1311" style="mask-type:luminance" maskUnits="userSpaceOnUse" x="0" y="0" width="96" height="175">
<path d="M95.7758 0H0V175H95.7758V0Z" fill="white"/>
</mask>
<g mask="url(#mask2_2632_1311)">
<path d="M17.3133 87.4538C17.3133 42.0629 51.7558 4.71474 95.8679 0.369783C92.9209 0.184892 90.0661 0 87.1191 0C39.047 0 0 39.197 0 87.4538C0 135.803 39.047 174.908 87.1191 174.908C90.0661 174.908 92.9209 174.723 95.7758 174.445C51.7558 170.193 17.3133 132.845 17.3133 87.4538Z" fill="#B7B6B6"/>
</g>
<path d="M202.971 78.6715L197.722 80.5204C194.223 76.7301 189.25 74.8812 182.895 74.8812C178.106 74.8812 174.147 76.083 171.107 78.5791C168.068 81.0751 166.503 84.2183 166.503 88.101C166.503 92.0762 167.976 95.3118 171.015 97.7153C174.054 100.119 178.106 101.413 183.172 101.413C189.342 101.413 194.223 99.4718 197.722 95.6815L202.695 98.4549C200.209 101.413 197.354 103.539 194.131 104.834C190.999 106.128 187.132 106.775 182.803 106.775C176.633 106.775 171.476 105.203 167.424 102.153C162.727 98.6398 160.425 93.9251 160.425 88.1934C160.425 82.5542 162.819 77.9319 167.516 74.3266C171.66 71.1834 176.725 69.6118 182.803 69.6118C191.552 69.6118 198.275 72.6625 202.971 78.6715Z" fill="#F4F4F4"/>
<path d="M255.647 88.1934C255.647 93.9251 253.345 98.6398 248.556 102.153C244.412 105.296 239.347 106.775 233.177 106.775C227.007 106.775 221.849 105.203 217.705 102.06C213.009 98.5474 210.614 93.8326 210.614 88.1934C210.614 82.5542 213.009 77.9319 217.797 74.3266C221.942 71.1834 227.099 69.6118 233.177 69.6118C239.255 69.6118 244.32 71.1834 248.464 74.3266C253.345 77.9319 255.647 82.5542 255.647 88.1934ZM249.661 88.1934C249.661 84.1258 247.912 80.7978 244.412 78.2093C241.373 75.9906 237.689 74.8812 233.269 74.8812C228.388 74.8812 224.428 76.1755 221.389 78.6715C218.35 81.1675 216.784 84.3107 216.784 88.1934C216.784 92.1686 218.258 95.4042 221.297 97.8078C224.336 100.211 228.296 101.506 233.269 101.506C238.242 101.506 242.202 100.304 245.149 97.8078C248.188 95.3118 249.661 92.1686 249.661 88.1934Z" fill="#F4F4F4"/>
<path d="M304.272 70.7212L285.393 105.758H278.762L259.976 70.7212H266.422L282.078 99.9341L297.825 70.7212H304.272Z" fill="#F4F4F4"/>
<path d="M316.152 70.7212H310.351V105.758H316.152V70.7212Z" fill="#F4F4F4"/>
<path d="M362.106 75.9906H345.437V105.758H339.635V75.9906H322.967V70.7212H362.106V75.9906Z" fill="#F4F4F4"/>
<path d="M408.06 105.758H401.706L397.654 97.9003H374.078L370.026 105.758H363.672L382.182 70.7212H389.458L408.06 105.758ZM394.891 92.7233L385.958 75.7133L376.933 92.7233H394.891Z" fill="#F4F4F4"/>
<path d="M447.383 105.758H414.599V70.7212H420.4V100.581H447.383V105.758Z" fill="#F4F4F4"/>
<path d="M460 70.7212H454.198V105.758H460V70.7212Z" fill="#F4F4F4"/>
<path d="M149.65 105.758H112.997V70.7212H148.268V75.9906H118.799V84.9579H139.335V90.2273H118.799V100.581H149.65V105.758Z" fill="#F4F4F4"/>
<path d="M224.061 140.055V132.198H221.021V130.349H229.402V132.198H226.363V140.055H224.061Z" fill="white"/>
<path d="M233.454 140.148C232.81 140.148 232.257 140.056 231.797 139.778C231.336 139.501 230.968 139.131 230.692 138.669C230.415 138.207 230.323 137.56 230.323 136.82V132.66H232.441V136.543C232.441 137.19 232.533 137.652 232.81 137.93C233.086 138.207 233.454 138.392 233.915 138.392C234.283 138.392 234.559 138.299 234.836 138.207C235.112 138.022 235.296 137.837 235.48 137.56C235.665 137.282 235.665 136.913 235.665 136.45V132.753H237.783V140.148H235.757V138.114L236.125 138.669C235.849 139.224 235.48 139.594 235.02 139.871C234.559 140.148 234.007 140.148 233.454 140.148Z" fill="white"/>
<path d="M243.676 140.055V129.794H245.794V134.139L245.702 136.358V138.576V140.055H243.676ZM248.004 140.148C247.359 140.148 246.807 140.055 246.346 139.778C245.886 139.501 245.518 139.039 245.241 138.484C244.965 137.929 244.873 137.19 244.873 136.358C244.873 135.526 244.965 134.786 245.241 134.231C245.518 133.677 245.886 133.214 246.346 132.937C246.807 132.66 247.359 132.567 248.004 132.567C248.741 132.567 249.293 132.752 249.846 133.03C250.398 133.307 250.859 133.769 251.135 134.324C251.504 134.878 251.596 135.618 251.596 136.358C251.596 137.097 251.412 137.837 251.135 138.391C250.767 138.946 250.398 139.408 249.846 139.686C249.385 139.963 248.741 140.148 248.004 140.148ZM247.636 138.391C248.004 138.391 248.28 138.299 248.557 138.114C248.833 137.929 249.017 137.744 249.201 137.375C249.385 137.097 249.478 136.727 249.478 136.265C249.478 135.803 249.385 135.433 249.201 135.156C249.017 134.878 248.833 134.601 248.557 134.416C248.28 134.231 247.912 134.139 247.636 134.139C247.267 134.139 246.991 134.231 246.715 134.416C246.439 134.601 246.162 134.786 246.07 135.156C245.886 135.433 245.794 135.803 245.794 136.265C245.794 136.727 245.886 137.097 246.07 137.375C246.254 137.652 246.439 137.929 246.715 138.114C246.991 138.299 247.267 138.391 247.636 138.391Z" fill="white"/>
<path d="M254.267 131.551C253.898 131.551 253.53 131.458 253.346 131.181C253.162 130.903 252.978 130.626 252.978 130.349C252.978 129.979 253.07 129.702 253.346 129.517C253.622 129.332 253.898 129.147 254.267 129.147C254.635 129.147 255.004 129.239 255.188 129.517C255.464 129.702 255.556 129.979 255.556 130.349C255.556 130.719 255.464 130.996 255.188 131.273C255.004 131.458 254.635 131.551 254.267 131.551ZM253.162 140.056V132.66H255.28V140.056H253.162Z" fill="white"/>
<path d="M260.989 140.148C260.16 140.148 259.424 139.963 258.779 139.686C258.134 139.316 257.674 138.946 257.305 138.299C256.937 137.744 256.753 137.097 256.753 136.358C256.753 135.618 256.937 134.971 257.305 134.416C257.674 133.862 258.134 133.399 258.687 133.03C259.239 132.66 259.976 132.567 260.713 132.567C261.45 132.567 262.094 132.752 262.647 133.03C263.199 133.307 263.66 133.769 264.028 134.324C264.397 134.879 264.581 135.618 264.581 136.358C264.581 136.45 264.581 136.543 264.581 136.635C264.581 136.727 264.581 136.82 264.581 136.912H258.595V135.618H263.476L262.647 135.988C262.647 135.618 262.555 135.248 262.371 134.971C262.186 134.694 262.002 134.416 261.726 134.324C261.45 134.139 261.173 134.047 260.805 134.047C260.437 134.047 260.068 134.139 259.792 134.324C259.516 134.509 259.332 134.694 259.147 134.971C258.963 135.248 258.871 135.618 258.871 135.988V136.358C258.871 136.727 258.963 137.097 259.147 137.467C259.332 137.837 259.608 138.022 259.884 138.207C260.252 138.391 260.621 138.484 260.989 138.484C261.358 138.484 261.726 138.391 262.002 138.299C262.278 138.207 262.555 138.022 262.831 137.744L263.936 138.946C263.568 139.316 263.199 139.593 262.647 139.871C262.094 140.148 261.634 140.148 260.989 140.148Z" fill="white"/>
<path d="M270.475 132.475C271.028 132.475 271.58 132.568 272.041 132.845C272.501 133.122 272.87 133.4 273.146 133.954C273.422 134.509 273.514 135.064 273.514 135.803V140.056H271.396V136.173C271.396 135.618 271.304 135.156 271.028 134.879C270.751 134.601 270.383 134.416 269.923 134.416C269.554 134.416 269.278 134.509 269.002 134.601C268.725 134.694 268.541 134.971 268.357 135.248C268.173 135.526 268.173 135.896 268.173 136.358V140.056H266.055V132.66H268.081V134.694L267.712 134.047C267.989 133.584 268.357 133.122 268.817 132.937C269.278 132.66 269.83 132.475 270.475 132.475Z" fill="white"/>
<path d="M279.224 140.148C278.395 140.148 277.658 139.963 277.013 139.686C276.369 139.316 275.908 138.946 275.54 138.299C275.171 137.744 274.987 137.097 274.987 136.358C274.987 135.618 275.171 134.971 275.54 134.416C275.908 133.862 276.369 133.399 276.921 133.03C277.474 132.66 278.211 132.567 278.947 132.567C279.684 132.567 280.329 132.752 280.881 133.03C281.434 133.307 281.894 133.769 282.263 134.324C282.631 134.879 282.815 135.618 282.815 136.358C282.815 136.45 282.815 136.543 282.815 136.635C282.815 136.727 282.815 136.82 282.815 136.912H276.829V135.618H281.71L280.881 135.988C280.881 135.618 280.789 135.248 280.605 134.971C280.421 134.694 280.237 134.416 279.96 134.324C279.684 134.139 279.408 134.047 279.039 134.047C278.671 134.047 278.303 134.139 278.026 134.324C277.75 134.509 277.566 134.694 277.382 134.971C277.198 135.248 277.105 135.618 277.105 135.988V136.358C277.105 136.727 277.198 137.097 277.382 137.467C277.566 137.837 277.842 138.022 278.118 138.207C278.487 138.391 278.855 138.484 279.224 138.484C279.592 138.484 279.96 138.391 280.237 138.299C280.513 138.207 280.789 138.022 281.065 137.744L282.17 138.946C281.802 139.316 281.434 139.593 280.881 139.871C280.329 140.148 279.868 140.148 279.224 140.148Z" fill="white"/>
<path d="M286.775 140.148C286.13 140.148 285.578 140.056 284.933 139.963C284.381 139.778 283.92 139.593 283.552 139.409L284.289 137.837C284.657 138.022 285.025 138.207 285.486 138.392C285.946 138.484 286.407 138.577 286.867 138.577C287.328 138.577 287.696 138.484 287.88 138.392C288.064 138.299 288.156 138.114 288.156 137.929C288.156 137.745 288.064 137.652 287.88 137.56C287.696 137.467 287.512 137.375 287.235 137.375C286.959 137.375 286.683 137.282 286.407 137.282C286.13 137.282 285.762 137.19 285.486 137.097C285.209 137.005 284.841 136.912 284.565 136.728C284.289 136.543 284.104 136.358 283.92 136.08C283.736 135.803 283.644 135.433 283.644 135.064C283.644 134.601 283.736 134.139 284.012 133.862C284.288 133.584 284.657 133.215 285.209 133.03C285.762 132.845 286.315 132.752 287.051 132.752C287.512 132.752 288.064 132.845 288.617 132.937C289.169 133.03 289.538 133.215 289.906 133.4L289.169 134.971C288.801 134.786 288.433 134.601 288.064 134.509C287.696 134.416 287.328 134.416 287.051 134.416C286.591 134.416 286.222 134.509 286.038 134.601C285.854 134.694 285.67 134.879 285.67 135.064C285.67 135.248 285.762 135.341 285.946 135.433C286.13 135.526 286.315 135.618 286.591 135.618C286.867 135.711 287.143 135.711 287.42 135.803C287.696 135.803 288.064 135.896 288.341 135.988C288.617 136.08 288.985 136.173 289.169 136.358C289.446 136.543 289.63 136.728 289.814 137.005C289.998 137.282 290.09 137.652 290.09 138.022C290.09 138.484 289.998 138.854 289.722 139.224C289.446 139.593 289.077 139.871 288.525 140.056C288.156 140.056 287.512 140.148 286.775 140.148Z" fill="white"/>
<path d="M290.644 134.416V132.752H295.801V134.416H290.644ZM294.604 140.148C293.775 140.148 293.038 139.963 292.577 139.501C292.117 139.039 291.841 138.391 291.841 137.467V130.903H293.959V137.375C293.959 137.652 294.051 137.929 294.235 138.114C294.419 138.299 294.604 138.391 294.88 138.391C295.248 138.391 295.524 138.299 295.709 138.114L296.261 139.593C296.077 139.778 295.801 139.871 295.432 139.963C295.248 140.055 294.972 140.148 294.604 140.148Z" fill="white"/>
<path d="M299.853 140.148C299.3 140.148 298.747 140.056 298.379 139.871C298.011 139.686 297.642 139.409 297.458 139.039C297.274 138.669 297.09 138.299 297.09 137.929C297.09 137.467 297.182 137.097 297.458 136.728C297.642 136.358 298.011 136.173 298.471 135.988C298.932 135.803 299.576 135.711 300.313 135.711H302.247V137.005H300.497C300.037 137.005 299.668 137.097 299.484 137.282C299.3 137.467 299.208 137.652 299.208 137.929C299.208 138.207 299.3 138.392 299.576 138.577C299.76 138.761 300.129 138.854 300.497 138.854C300.866 138.854 301.142 138.761 301.418 138.577C301.694 138.392 301.879 138.114 302.063 137.837L302.431 138.854C302.247 139.316 301.971 139.686 301.602 139.963C301.234 140.241 300.497 140.148 299.853 140.148ZM302.063 140.056V138.577L301.971 138.299V135.711C301.971 135.248 301.787 134.879 301.51 134.601C301.234 134.324 300.774 134.232 300.221 134.232C299.853 134.232 299.484 134.324 299.024 134.416C298.655 134.509 298.287 134.694 298.011 134.879L297.274 133.4C297.642 133.122 298.195 132.937 298.747 132.752C299.3 132.568 299.853 132.475 300.497 132.475C301.602 132.475 302.523 132.752 303.168 133.307C303.813 133.862 304.089 134.694 304.089 135.803V140.056H302.063Z" fill="white"/>
<path d="M306.022 140.056V132.66H308.048V134.786L307.772 134.139C307.956 133.584 308.325 133.215 308.877 132.937C309.338 132.66 309.982 132.567 310.627 132.567V134.601C310.535 134.601 310.443 134.601 310.351 134.601C310.259 134.601 310.167 134.601 310.075 134.601C309.522 134.601 308.969 134.786 308.693 135.063C308.325 135.433 308.141 135.895 308.141 136.635V140.148H306.022V140.056Z" fill="white"/>
<path d="M319.56 140.148C318.732 140.148 317.995 139.963 317.35 139.686C316.706 139.316 316.245 138.946 315.877 138.299C315.508 137.744 315.324 137.097 315.324 136.358C315.324 135.618 315.508 134.971 315.877 134.416C316.245 133.862 316.706 133.399 317.258 133.03C317.811 132.66 318.547 132.567 319.284 132.567C320.021 132.567 320.666 132.752 321.218 133.03C321.771 133.307 322.231 133.769 322.599 134.324C322.968 134.879 323.152 135.618 323.152 136.358C323.152 136.45 323.152 136.543 323.152 136.635C323.152 136.727 323.152 136.82 323.152 136.912H317.166V135.618H322.047L321.218 135.988C321.218 135.618 321.126 135.248 320.942 134.971C320.758 134.694 320.573 134.416 320.297 134.324C320.021 134.139 319.745 134.047 319.376 134.047C319.008 134.047 318.64 134.139 318.363 134.324C318.087 134.509 317.903 134.694 317.719 134.971C317.534 135.248 317.442 135.618 317.442 135.988V136.358C317.442 136.727 317.534 137.097 317.719 137.467C317.903 137.837 318.179 138.022 318.455 138.207C318.824 138.391 319.192 138.484 319.56 138.484C319.929 138.484 320.297 138.391 320.573 138.299C320.85 138.207 321.126 138.022 321.402 137.744L322.507 138.946C322.139 139.316 321.771 139.593 321.218 139.871C320.666 140.148 320.205 140.148 319.56 140.148Z" fill="white"/>
<path d="M327.112 140.148C326.467 140.148 325.915 140.056 325.27 139.963C324.718 139.778 324.257 139.593 323.889 139.409L324.625 137.837C324.994 138.022 325.362 138.207 325.823 138.392C326.283 138.484 326.744 138.577 327.204 138.577C327.664 138.577 328.033 138.484 328.217 138.392C328.401 138.299 328.493 138.114 328.493 137.929C328.493 137.745 328.401 137.652 328.217 137.56C328.033 137.467 327.849 137.375 327.572 137.375C327.296 137.375 327.02 137.282 326.744 137.282C326.467 137.282 326.099 137.19 325.823 137.097C325.546 137.005 325.178 136.912 324.902 136.728C324.625 136.543 324.441 136.358 324.257 136.08C324.073 135.803 323.981 135.433 323.981 135.064C323.981 134.601 324.073 134.139 324.349 133.862C324.625 133.584 324.994 133.215 325.546 133.03C326.099 132.845 326.651 132.752 327.388 132.752C327.849 132.752 328.401 132.845 328.954 132.937C329.506 133.03 329.875 133.215 330.243 133.4L329.506 134.971C329.138 134.786 328.77 134.601 328.401 134.509C328.033 134.416 327.664 134.416 327.388 134.416C326.928 134.416 326.559 134.509 326.375 134.601C326.191 134.694 326.007 134.879 326.007 135.064C326.007 135.248 326.099 135.341 326.283 135.433C326.467 135.526 326.651 135.618 326.928 135.618C327.204 135.711 327.48 135.711 327.757 135.803C328.033 135.803 328.401 135.896 328.677 135.988C328.954 136.08 329.322 136.173 329.506 136.358C329.783 136.543 329.967 136.728 330.151 137.005C330.335 137.282 330.427 137.652 330.427 138.022C330.427 138.484 330.335 138.854 330.059 139.224C329.783 139.593 329.414 139.871 328.862 140.056C328.401 140.056 327.849 140.148 327.112 140.148Z" fill="white"/>
<path d="M340.281 132.475C340.833 132.475 341.386 132.568 341.846 132.845C342.307 133.122 342.675 133.4 342.951 133.954C343.228 134.509 343.32 135.064 343.32 135.803V140.056H341.202V136.173C341.202 135.618 341.11 135.156 340.833 134.879C340.557 134.601 340.189 134.416 339.728 134.416C339.36 134.416 339.084 134.509 338.807 134.601C338.531 134.694 338.347 134.971 338.163 135.248C337.978 135.526 337.978 135.896 337.978 136.358V140.056H335.86V132.66H337.886V134.694L337.518 134.047C337.794 133.584 338.163 133.122 338.623 132.937C339.084 132.66 339.636 132.475 340.281 132.475Z" fill="white"/>
<path d="M348.385 140.148C347.74 140.148 347.188 140.056 346.727 139.778C346.267 139.501 345.899 139.131 345.622 138.669C345.346 138.207 345.254 137.56 345.254 136.82V132.66H347.372V136.543C347.372 137.19 347.464 137.652 347.74 137.93C348.017 138.207 348.385 138.392 348.845 138.392C349.214 138.392 349.49 138.299 349.766 138.207C350.043 138.022 350.227 137.837 350.411 137.56C350.595 137.282 350.595 136.913 350.595 136.45V132.753H352.713V140.148H350.687V138.114L351.056 138.669C350.779 139.224 350.411 139.594 349.951 139.871C349.49 140.148 349.03 140.148 348.385 140.148Z" fill="white"/>
<path d="M358.423 140.148C357.594 140.148 356.857 139.963 356.213 139.686C355.568 139.316 355.107 138.946 354.739 138.299C354.371 137.744 354.187 137.097 354.187 136.358C354.187 135.618 354.371 134.971 354.739 134.416C355.107 133.862 355.568 133.399 356.12 133.03C356.673 132.66 357.41 132.567 358.146 132.567C358.883 132.567 359.528 132.752 360.08 133.03C360.633 133.307 361.093 133.769 361.462 134.324C361.83 134.879 362.014 135.618 362.014 136.358C362.014 136.45 362.014 136.543 362.014 136.635C362.014 136.727 362.014 136.82 362.014 136.912H356.028V135.618H360.909L360.08 135.988C360.08 135.618 359.988 135.248 359.804 134.971C359.62 134.694 359.436 134.416 359.159 134.324C358.883 134.139 358.607 134.047 358.239 134.047C357.87 134.047 357.502 134.139 357.226 134.324C356.949 134.509 356.765 134.694 356.581 134.971C356.397 135.248 356.305 135.618 356.305 135.988V136.358C356.305 136.727 356.397 137.097 356.581 137.467C356.765 137.837 357.041 138.022 357.318 138.207C357.686 138.391 358.054 138.484 358.423 138.484C358.791 138.484 359.159 138.391 359.436 138.299C359.712 138.207 359.988 138.022 360.265 137.744L361.37 138.946C361.001 139.316 360.633 139.593 360.08 139.871C359.528 140.148 359.067 140.148 358.423 140.148Z" fill="white"/>
<path d="M365.974 140.148C365.33 140.148 364.777 140.056 364.132 139.963C363.58 139.778 363.119 139.593 362.751 139.409L363.488 137.837C363.856 138.022 364.224 138.207 364.685 138.392C365.145 138.484 365.606 138.577 366.066 138.577C366.527 138.577 366.895 138.484 367.079 138.392C367.263 138.299 367.356 138.114 367.356 137.929C367.356 137.745 367.263 137.652 367.079 137.56C366.895 137.467 366.711 137.375 366.435 137.375C366.158 137.375 365.882 137.282 365.606 137.282C365.33 137.282 364.961 137.19 364.685 137.097C364.409 137.005 364.04 136.912 363.764 136.728C363.488 136.543 363.304 136.358 363.119 136.08C362.935 135.803 362.843 135.433 362.843 135.064C362.843 134.601 362.935 134.139 363.211 133.862C363.488 133.584 363.856 133.215 364.409 133.03C364.961 132.845 365.514 132.752 366.25 132.752C366.711 132.752 367.263 132.845 367.816 132.937C368.369 133.03 368.737 133.215 369.105 133.4L368.369 134.971C368 134.786 367.632 134.601 367.263 134.509C366.895 134.416 366.527 134.416 366.25 134.416C365.79 134.416 365.422 134.509 365.237 134.601C365.053 134.694 364.869 134.879 364.869 135.064C364.869 135.248 364.961 135.341 365.145 135.433C365.33 135.526 365.514 135.618 365.79 135.618C366.066 135.711 366.343 135.711 366.619 135.803C366.895 135.803 367.263 135.896 367.54 135.988C367.816 136.08 368.184 136.173 368.369 136.358C368.645 136.543 368.829 136.728 369.013 137.005C369.197 137.282 369.29 137.652 369.29 138.022C369.29 138.484 369.197 138.854 368.921 139.224C368.645 139.593 368.276 139.871 367.724 140.056C367.356 140.056 366.711 140.148 365.974 140.148Z" fill="white"/>
<path d="M369.843 134.416V132.752H375V134.416H369.843ZM373.803 140.148C372.974 140.148 372.237 139.963 371.777 139.501C371.316 139.039 371.04 138.391 371.04 137.467V130.903H373.158V137.375C373.158 137.652 373.25 137.929 373.434 138.114C373.619 138.299 373.803 138.391 374.079 138.391C374.447 138.391 374.724 138.299 374.908 138.114L375.46 139.593C375.276 139.778 375 139.871 374.632 139.963C374.447 140.055 374.079 140.148 373.803 140.148Z" fill="white"/>
<path d="M376.749 140.056V132.66H378.775V134.786L378.499 134.047C378.683 133.492 379.051 133.122 379.604 132.845C380.064 132.568 380.709 132.475 381.354 132.475V134.509C381.262 134.509 381.169 134.509 381.077 134.509C380.985 134.509 380.893 134.509 380.801 134.509C380.249 134.509 379.696 134.694 379.42 134.971C379.051 135.341 378.867 135.803 378.867 136.543V140.056H376.749Z" fill="white"/>
<path d="M384.393 140.148C383.84 140.148 383.288 140.056 382.919 139.871C382.551 139.686 382.182 139.409 381.998 139.039C381.814 138.669 381.63 138.299 381.63 137.929C381.63 137.467 381.722 137.097 381.998 136.728C382.182 136.358 382.551 136.173 383.011 135.988C383.472 135.803 384.116 135.711 384.853 135.711H386.787V137.005H385.037C384.577 137.005 384.208 137.097 384.024 137.282C383.84 137.467 383.748 137.652 383.748 137.929C383.748 138.207 383.84 138.392 384.116 138.577C384.301 138.761 384.669 138.854 385.037 138.854C385.406 138.854 385.682 138.761 385.958 138.577C386.234 138.392 386.419 138.114 386.603 137.837L386.971 138.854C386.787 139.316 386.511 139.686 386.142 139.963C385.774 140.241 385.129 140.148 384.393 140.148ZM386.695 140.056V138.577L386.603 138.299V135.711C386.603 135.248 386.419 134.879 386.142 134.601C385.866 134.324 385.406 134.232 384.853 134.232C384.485 134.232 384.116 134.324 383.656 134.416C383.288 134.509 382.919 134.694 382.643 134.879L381.906 133.4C382.275 133.122 382.827 132.937 383.38 132.752C383.932 132.568 384.485 132.475 385.129 132.475C386.235 132.475 387.155 132.752 387.8 133.307C388.445 133.862 388.721 134.694 388.721 135.803V140.056H386.695Z" fill="white"/>
<path d="M394.523 142.736V132.66H396.549V134.139V136.358L396.642 138.576V142.736H394.523ZM398.944 140.148C398.299 140.148 397.747 140.055 397.286 139.778C396.826 139.501 396.457 139.039 396.181 138.484C395.905 137.929 395.813 137.19 395.813 136.358C395.813 135.526 395.905 134.786 396.181 134.231C396.457 133.677 396.826 133.215 397.286 132.937C397.747 132.66 398.299 132.567 398.944 132.567C399.681 132.567 400.233 132.752 400.786 133.03C401.338 133.307 401.799 133.769 402.075 134.324C402.443 134.879 402.535 135.526 402.535 136.358C402.535 137.097 402.351 137.837 402.075 138.391C401.707 138.946 401.338 139.408 400.786 139.686C400.233 139.963 399.589 140.148 398.944 140.148ZM398.575 138.391C398.944 138.391 399.22 138.299 399.496 138.114C399.773 137.929 399.957 137.744 400.141 137.375C400.325 137.097 400.417 136.727 400.417 136.265C400.417 135.803 400.325 135.433 400.141 135.156C399.957 134.879 399.773 134.601 399.496 134.416C399.22 134.231 398.852 134.139 398.575 134.139C398.207 134.139 397.931 134.231 397.655 134.416C397.378 134.601 397.102 134.786 397.01 135.156C396.826 135.433 396.734 135.803 396.734 136.265C396.734 136.727 396.826 137.097 397.01 137.375C397.194 137.652 397.378 137.929 397.655 138.114C397.839 138.299 398.207 138.391 398.575 138.391Z" fill="white"/>
<path d="M404.009 140.056V132.66H406.035V134.786L405.759 134.139C405.943 133.584 406.311 133.215 406.864 132.937C407.324 132.66 407.969 132.567 408.613 132.567V134.601C408.521 134.601 408.429 134.601 408.337 134.601C408.245 134.601 408.153 134.601 408.061 134.601C407.508 134.601 406.956 134.786 406.679 135.063C406.311 135.433 406.127 135.895 406.127 136.635V140.148H404.009V140.056Z" fill="white"/>
<path d="M411.007 131.551C410.639 131.551 410.27 131.458 410.086 131.181C409.902 130.903 409.718 130.626 409.718 130.349C409.718 129.979 409.81 129.702 410.086 129.517C410.362 129.332 410.639 129.147 411.007 129.147C411.375 129.147 411.744 129.239 411.928 129.517C412.204 129.702 412.296 129.979 412.296 130.349C412.296 130.719 412.204 130.996 411.928 131.273C411.744 131.458 411.375 131.551 411.007 131.551ZM409.902 140.056V132.66H412.02V140.056H409.902Z" fill="white"/>
<path d="M417.638 140.148C416.809 140.148 416.165 139.963 415.52 139.686C414.876 139.316 414.415 138.946 414.047 138.299C413.678 137.652 413.494 137.097 413.494 136.358C413.494 135.618 413.678 134.971 414.047 134.416C414.415 133.862 414.876 133.399 415.52 133.03C416.165 132.66 416.809 132.567 417.638 132.567C418.375 132.567 419.112 132.752 419.756 133.03C420.401 133.399 420.862 133.769 421.23 134.416C421.598 135.063 421.782 135.618 421.782 136.45C421.782 137.19 421.598 137.837 421.23 138.391C420.862 138.946 420.401 139.408 419.756 139.778C419.112 139.963 418.375 140.148 417.638 140.148ZM417.638 138.391C418.007 138.391 418.283 138.299 418.559 138.114C418.835 137.929 419.112 137.744 419.204 137.375C419.388 137.097 419.48 136.727 419.48 136.265C419.48 135.803 419.388 135.433 419.204 135.156C419.02 134.879 418.835 134.601 418.559 134.416C418.283 134.231 417.915 134.139 417.638 134.139C417.362 134.139 416.994 134.231 416.717 134.416C416.441 134.601 416.165 134.786 416.073 135.156C415.981 135.526 415.796 135.803 415.796 136.265C415.796 136.727 415.889 137.097 416.073 137.375C416.257 137.652 416.441 137.929 416.717 138.114C416.994 138.299 417.27 138.391 417.638 138.391Z" fill="white"/>
<path d="M423.071 140.056V132.66H425.097V134.786L424.821 134.139C425.005 133.584 425.374 133.215 425.926 132.937C426.387 132.66 427.031 132.567 427.676 132.567V134.601C427.584 134.601 427.492 134.601 427.4 134.601C427.308 134.601 427.215 134.601 427.123 134.601C426.571 134.601 426.018 134.786 425.742 135.063C425.374 135.433 425.189 135.895 425.189 136.635V140.148H423.071V140.056Z" fill="white"/>
<path d="M430.071 131.551C429.702 131.551 429.334 131.458 429.15 131.181C428.965 130.903 428.781 130.626 428.781 130.349C428.781 129.979 428.873 129.702 429.15 129.517C429.426 129.332 429.702 129.147 430.071 129.147C430.439 129.147 430.807 129.239 430.991 129.517C431.268 129.702 431.36 129.979 431.36 130.349C431.36 130.719 431.268 130.996 430.991 131.273C430.807 131.458 430.439 131.551 430.071 131.551ZM428.965 140.056V132.66H431.084V140.056H428.965Z" fill="white"/>
<path d="M436.333 140.148C435.596 140.148 435.044 139.963 434.491 139.686C433.938 139.408 433.478 138.946 433.202 138.391C432.925 137.837 432.741 137.19 432.741 136.358C432.741 135.618 432.925 134.878 433.202 134.324C433.478 133.769 433.938 133.307 434.491 133.03C435.044 132.752 435.688 132.567 436.333 132.567C436.977 132.567 437.53 132.66 437.99 132.937C438.451 133.214 438.819 133.677 439.096 134.231C439.372 134.786 439.464 135.526 439.464 136.358C439.464 137.19 439.372 137.929 439.096 138.484C438.819 139.039 438.451 139.501 437.99 139.778C437.53 140.055 436.977 140.148 436.333 140.148ZM436.701 138.391C437.07 138.391 437.346 138.299 437.622 138.114C437.898 137.929 438.175 137.744 438.267 137.375C438.359 137.005 438.543 136.727 438.543 136.265C438.543 135.803 438.451 135.433 438.267 135.156C438.083 134.878 437.898 134.601 437.622 134.416C437.346 134.231 436.977 134.139 436.701 134.139C436.333 134.139 436.057 134.231 435.78 134.416C435.504 134.601 435.228 134.786 435.136 135.156C435.044 135.526 434.859 135.803 434.859 136.265C434.859 136.727 434.951 137.097 435.136 137.375C435.32 137.652 435.504 137.929 435.78 138.114C436.057 138.299 436.333 138.391 436.701 138.391ZM438.635 140.055V138.576V136.358L438.543 134.139V129.794H440.661V140.055H438.635Z" fill="white"/>
<path d="M444.898 140.148C444.345 140.148 443.792 140.056 443.424 139.871C443.056 139.686 442.687 139.409 442.503 139.039C442.319 138.669 442.135 138.299 442.135 137.929C442.135 137.467 442.227 137.097 442.503 136.728C442.687 136.358 443.056 136.173 443.516 135.988C443.977 135.803 444.621 135.711 445.358 135.711H447.292V137.005H445.542C445.082 137.005 444.713 137.097 444.529 137.282C444.345 137.467 444.253 137.652 444.253 137.929C444.253 138.207 444.345 138.392 444.621 138.577C444.805 138.761 445.174 138.854 445.542 138.854C445.911 138.854 446.187 138.761 446.463 138.577C446.739 138.392 446.924 138.114 447.108 137.837L447.476 138.854C447.292 139.316 447.016 139.686 446.647 139.963C446.279 140.241 445.542 140.148 444.898 140.148ZM447.2 140.056V138.577L447.108 138.299V135.711C447.108 135.248 446.924 134.879 446.647 134.601C446.371 134.324 445.911 134.232 445.358 134.232C444.99 134.232 444.621 134.324 444.161 134.416C443.792 134.509 443.424 134.694 443.148 134.879L442.411 133.4C442.779 133.122 443.332 132.937 443.885 132.752C444.437 132.568 444.99 132.475 445.634 132.475C446.739 132.475 447.66 132.752 448.305 133.307C448.95 133.862 449.226 134.694 449.226 135.803V140.056H447.2Z" fill="white"/>
<path d="M454.383 140.148C453.646 140.148 453.093 139.963 452.541 139.686C451.988 139.408 451.528 138.946 451.251 138.391C450.975 137.837 450.791 137.19 450.791 136.358C450.791 135.618 450.975 134.878 451.251 134.324C451.528 133.769 451.988 133.307 452.541 133.03C453.093 132.752 453.738 132.567 454.383 132.567C455.027 132.567 455.58 132.66 456.04 132.937C456.501 133.214 456.869 133.677 457.145 134.231C457.422 134.786 457.514 135.526 457.514 136.358C457.514 137.19 457.422 137.929 457.145 138.484C456.869 139.039 456.501 139.501 456.04 139.778C455.58 140.055 455.027 140.148 454.383 140.148ZM454.751 138.391C455.119 138.391 455.396 138.299 455.672 138.114C455.948 137.929 456.224 137.744 456.317 137.375C456.409 137.005 456.593 136.727 456.593 136.265C456.593 135.803 456.501 135.433 456.317 135.156C456.132 134.878 455.948 134.601 455.672 134.416C455.396 134.231 455.027 134.139 454.751 134.139C454.383 134.139 454.106 134.231 453.83 134.416C453.554 134.601 453.278 134.786 453.185 135.156C453.093 135.526 452.909 135.803 452.909 136.265C452.909 136.727 453.001 137.097 453.185 137.375C453.37 137.652 453.554 137.929 453.83 138.114C454.106 138.299 454.383 138.391 454.751 138.391ZM456.685 140.055V138.576V136.358L456.593 134.139V129.794H458.711V140.055H456.685Z" fill="white"/>
</svg>
