<svg width="100" height="100" viewBox="0 0 100 100" fill="none" xmlns="http://www.w3.org/2000/svg">
<path d="M79.0841 0C79.4804 0.0880669 79.9207 0.220167 80.317 0.308234C84.9846 1.40907 88.3311 5.19595 88.8155 9.9956C88.9036 11.0524 88.9476 12.1532 88.9036 13.21C88.8595 14.443 87.9348 15.2796 86.834 15.2796C85.7331 15.2796 84.8525 14.443 84.7644 13.21C84.7204 12.4174 84.7644 11.6248 84.7204 10.8322C84.5883 7.30956 82.0343 4.57948 78.5117 4.27125C78.0273 4.22721 77.587 4.22721 77.1026 4.22721C58.0361 4.22721 38.9696 4.22721 19.9031 4.22721C19.5509 4.22721 19.1986 4.22721 18.7142 4.22721C19.0225 4.84368 19.2867 5.28402 19.5068 5.76838C20.3435 7.48569 20.6517 9.29106 20.6517 11.1845C20.6517 37.6926 20.6517 64.2008 20.6517 90.7089C20.6517 93.3509 22.1488 95.3325 24.4386 95.7728C27.3448 96.3452 29.9428 94.2316 30.0749 91.1933C30.1189 90.1805 30.0749 89.1678 30.0749 88.155C30.0749 85.1167 31.7922 83.3994 34.8305 83.3994C48.9652 83.3994 63.0559 83.3994 77.1907 83.3994C79.6565 83.3994 82.1224 83.3994 84.7204 83.3994C84.7204 82.6508 84.6763 81.9903 84.7204 81.3738C84.8084 80.0969 85.6451 79.1722 86.7459 79.1722C87.9348 79.1281 88.8155 80.0528 88.9036 81.4179C88.9476 82.0343 88.9036 82.6508 88.9036 83.4434C90.2686 83.4434 91.5456 83.5315 92.7785 83.4434C95.8608 83.1792 98.1066 85.3369 97.8424 88.5073C97.7543 89.476 97.8424 90.4447 97.7983 91.4135C97.6222 96.2131 93.9674 99.8239 89.1678 100.044C88.8595 100.044 88.5953 100.044 88.2871 100.044C67.4593 100.044 46.6314 100.044 25.8036 100.044C21.092 100.044 17.4813 97.2699 16.6006 92.8666C16.4245 91.9859 16.4245 91.0612 16.4245 90.1805C16.4245 72.7433 16.4245 55.3501 16.4245 37.9128C16.4245 37.4725 16.4245 36.9881 16.4245 36.4157C15.9401 36.4157 15.5438 36.4157 15.1475 36.4157C11.6689 36.4157 8.19022 36.4157 4.71158 36.4157C1.76134 36.3716 0 34.6103 0 31.572C0 24.7028 0 17.8336 0 10.9643C0.0440335 5.72435 3.39058 1.40907 8.23426 0.308234C8.80669 0.176134 9.33509 0.0880669 9.90753 0C32.9811 0 56.0106 0 79.0841 0ZM93.7472 87.6266C73.9322 87.6266 54.2052 87.6266 34.4782 87.6266C34.214 90.3567 34.5663 93.1748 32.893 95.8168C33.4654 95.8168 33.8177 95.8168 34.17 95.8168C52.1797 95.8168 70.1453 95.8168 88.155 95.8168C88.6834 95.8168 89.2558 95.8168 89.7842 95.7288C91.8978 95.4205 93.6151 93.6592 93.7472 91.5015C93.7913 90.2686 93.7472 89.0797 93.7472 87.6266ZM4.22721 32.0564C8.36636 32.0564 12.3734 32.0564 16.4685 32.0564C16.4685 31.7481 16.5125 31.4839 16.5125 31.2638C16.5125 24.3945 16.5125 17.5694 16.5125 10.7001C16.5125 10.2158 16.4685 9.68736 16.3804 9.20299C15.5878 4.66755 10.1277 2.68604 6.60502 5.63628C4.84368 7.13342 4.13915 9.11493 4.18318 11.3606C4.18318 17.8776 4.18318 24.4386 4.18318 30.9555C4.18318 31.3078 4.22721 31.6601 4.22721 32.0564Z" fill="#282828"/>
<path d="M99.9999 67.8996C99.0752 69.5288 98.4587 69.793 96.6534 69.2206C95.0682 68.7362 93.527 68.2518 91.8978 67.7675C91.1932 69.3967 90.4887 70.8938 89.7841 72.435C89.3878 73.4037 88.7714 74.1083 87.6265 74.1083C86.5697 74.1083 85.9973 73.4037 85.5569 72.479C83.9717 68.9564 82.3865 65.4337 80.7133 61.7349C80.4931 62.2192 80.317 62.5715 80.1408 62.8797C78.6877 66.0502 77.2786 69.2206 75.8696 72.391C75.4292 73.3597 74.9008 74.1083 73.756 74.1083C72.6111 74.1083 71.9946 73.3597 71.5543 72.3469C70.8938 70.8498 70.2333 69.3527 69.5288 67.7675C67.8995 68.2518 66.3143 68.7362 64.7731 69.2206C63.7604 69.5728 62.7916 69.7049 61.999 68.8243C61.1624 67.8996 61.4706 66.9308 61.911 65.918C63.8925 61.6028 65.8299 57.2875 67.7234 52.9722C67.8995 52.6199 67.7674 52.0475 67.6793 51.6072C67.239 49.7578 66.1382 48.4368 64.4649 47.468C63.1879 46.7195 62.8357 45.3104 63.0558 43.8573C63.276 42.5363 63.1439 41.3914 62.3073 40.2465C61.0743 38.5733 61.2945 36.7679 62.4834 35.1387C63.0999 34.302 63.3641 33.4654 63.1439 32.4526C62.6595 30.0748 63.6283 28.4015 65.7419 27.3447C66.4904 26.9484 66.9308 26.42 67.1509 25.5834C67.7234 23.2496 69.2205 21.9727 71.6864 21.9286C72.6111 21.9286 73.3156 21.5764 73.8881 20.8278C75.4292 18.9784 77.3227 18.5821 79.4803 19.5508C80.317 19.9471 81.1096 19.9471 81.9462 19.5508C84.1038 18.538 86.0413 18.9784 87.5384 20.8278C88.1549 21.5764 88.9035 21.8846 89.8722 21.9286C92.25 22.0167 93.6591 23.2496 94.2756 25.4953C94.4957 26.376 94.9801 26.9925 95.8167 27.4328C97.8863 28.4896 98.767 30.1629 98.3266 32.4967C98.1505 33.4654 98.3266 34.258 98.8991 35.0946C99.3834 35.7992 99.6476 36.6798 99.9999 37.5165C99.9999 37.8247 99.9999 38.0889 99.9999 38.3971C99.7357 39.0136 99.5596 39.7181 99.1633 40.2465C98.2826 41.3914 98.1065 42.5803 98.3707 43.9454C98.6349 45.3985 98.1945 46.8075 96.9616 47.5561C95.2883 48.5689 94.1875 49.8018 93.7472 51.6952C93.6591 52.1356 93.571 52.664 93.7031 53.0603C95.2003 56.4949 96.7414 59.9295 98.3266 63.3641C98.855 64.553 99.4715 65.7419 100.044 66.9308C99.9999 67.195 99.9999 67.5473 99.9999 67.8996ZM67.6793 33.9057C67.1509 34.9625 66.5785 36.1074 66.0941 37.2523C65.962 37.6045 65.874 38.177 66.0501 38.4412C67.195 39.9823 67.7234 41.6556 67.239 43.5931C67.1069 44.2096 67.283 44.5618 67.8995 44.8701C69.5288 45.6186 70.6296 46.8516 70.9819 48.6129C71.158 49.4936 71.6864 49.8018 72.523 49.7578C73.844 49.7137 74.9008 50.2421 75.8255 51.0788C76.2218 51.431 76.5301 51.8273 76.9704 52.0915C77.2346 52.2677 77.719 52.3998 77.9832 52.3117C79.7886 51.4751 81.5499 51.431 83.3993 52.2677C83.7075 52.3998 84.28 52.3117 84.5001 52.0915C85.8652 50.6825 87.4063 49.6697 89.4759 49.7137C89.7841 49.7137 90.2245 49.3174 90.3126 49.0092C90.7969 47.1158 91.8537 45.7507 93.6151 44.826C93.9233 44.6499 94.2315 44.0775 94.1875 43.7692C93.7472 41.7437 94.2315 40.0264 95.4645 38.3971C95.6406 38.177 95.5966 37.6045 95.4645 37.3844C94.2315 35.7551 93.7912 34.0378 94.2315 32.0123C94.2756 31.704 94.0114 31.1756 93.7472 31.0435C91.9858 30.1629 90.885 28.7978 90.4446 26.9044C90.3125 26.42 90.1364 26.0678 89.5199 26.1118C87.5825 26.1558 85.9532 25.4073 84.7203 23.8661C84.368 23.4258 84.0158 23.2496 83.4433 23.5579C81.682 24.4385 79.9207 24.4385 78.1593 23.5579C77.6309 23.2937 77.2346 23.3817 76.8823 23.8661C75.7375 25.4073 74.1523 26.1558 72.2148 26.1558C71.5543 26.1558 71.3782 26.5081 71.114 27.0365C70.5856 28.1373 70.1012 29.4583 69.1765 30.1188C67.7234 31.0435 66.6225 31.8361 67.6793 33.9057ZM87.5825 66.7547C87.7146 66.6666 87.7586 66.6666 87.8026 66.6226C88.1549 65.9181 88.4631 65.2135 88.8154 64.509C89.4319 63.3201 90.2685 62.9238 91.5455 63.3201C92.3381 63.5402 93.0867 63.7604 94.0114 64.0686C93.8352 63.6283 93.7031 63.3201 93.571 63.0559C92.3381 60.3258 91.1052 57.5517 89.8722 54.8216C89.3878 53.7208 88.8154 53.5887 87.9788 54.5134C86.6578 55.9665 85.2487 57.0673 83.0911 56.627C83.1351 56.8472 83.1351 56.9352 83.1351 57.0673C84.6322 60.2377 86.0853 63.4962 87.5825 66.7547ZM78.2474 56.627C76.1778 57.0673 74.7687 55.9665 73.4918 54.5134C73.4037 54.4253 73.3156 54.2932 73.1835 54.2052C72.479 53.6767 71.9946 53.7648 71.5983 54.6015C70.6736 56.627 69.7489 58.6525 68.8683 60.6781C68.3839 61.7349 67.8995 62.7917 67.4592 63.8485C67.5913 63.9365 67.6353 63.9365 67.6353 63.9365C68.3399 63.7164 69.0884 63.4962 69.793 63.276C71.2461 62.8797 72.0387 63.232 72.6992 64.553C73.0514 65.2576 73.3597 66.0061 73.8 66.8868C75.3412 63.4522 76.7943 60.2377 78.2474 57.0233C78.2474 56.9352 78.2474 56.8472 78.2474 56.627Z" fill="#282828"/>
<path d="M50.9464 10.4355C57.9918 10.4355 65.0372 10.4355 72.0385 10.4355C72.4788 10.4355 72.9192 10.4355 73.3155 10.5236C74.3282 10.6997 74.9887 11.4483 75.0328 12.4611C75.0768 13.4739 74.5044 14.2665 73.5356 14.5307C73.1393 14.6187 72.699 14.6628 72.2587 14.6628C58.0799 14.6628 43.9011 14.6628 29.7223 14.6628C29.238 14.6628 28.7095 14.6187 28.2252 14.4866C27.3005 14.1344 26.8161 13.3858 26.9482 12.373C27.0363 11.4483 27.6087 10.7878 28.5774 10.6117C29.0178 10.5236 29.5022 10.5236 29.9865 10.5236C36.9878 10.4355 43.9451 10.4355 50.9464 10.4355Z" fill="#282828"/>
<path d="M47.6881 72.964C53.5886 72.964 59.445 72.964 65.3455 72.964C65.7418 72.964 66.1381 72.964 66.5344 73.008C67.5912 73.1401 68.2958 73.9327 68.3398 74.9455C68.3838 76.0023 67.7233 76.8829 66.6225 77.0591C66.2702 77.1471 65.918 77.1031 65.5657 77.1031C53.6326 77.1031 41.7436 77.1031 29.8105 77.1031C29.3702 77.1031 28.8858 77.1031 28.4455 76.971C27.4767 76.7068 26.8603 75.8261 26.9924 74.8574C27.1245 73.8446 27.6529 73.2282 28.6656 73.008C29.106 72.9199 29.5023 72.9199 29.9426 72.9199C35.8431 72.964 41.7436 72.964 47.6881 72.964Z" fill="#282828"/>
<path d="M44.6061 52.1358C49.7581 52.1358 54.8659 52.1358 60.0179 52.1358C60.8985 52.1358 61.6911 52.4 61.9553 53.1926C62.1755 53.8531 62.2195 54.7778 61.8673 55.2622C61.471 55.7906 60.5903 56.1869 59.8858 56.1869C55.7466 56.275 51.6515 56.2309 47.5124 56.2309C41.4357 56.2309 35.4032 56.2309 29.3265 56.2309C27.4771 56.2309 26.3763 54.6017 27.257 53.1046C27.7413 52.312 28.4459 52.0918 29.3706 52.0918C34.4344 52.1358 39.4983 52.1358 44.6061 52.1358Z" fill="#282828"/>
<path d="M44.5175 20.8711C49.6694 20.8711 54.7773 20.8711 59.9292 20.8711C61.0741 20.8711 61.9107 21.4876 62.0869 22.4563C62.263 23.425 61.9548 24.2617 61.0741 24.746C60.7218 24.9222 60.2374 25.0102 59.8411 25.0102C49.6694 25.0102 39.5417 25.0102 29.37 25.0102C27.9169 25.0102 26.9922 24.1736 26.9922 22.9407C26.9922 21.7077 27.9169 20.8711 29.37 20.8711C34.3898 20.8711 39.4537 20.8711 44.5175 20.8711Z" fill="#282828"/>
<path d="M42.7568 45.8833C38.3975 45.8833 34.0822 45.8833 29.7229 45.8833C29.2385 45.8833 28.7101 45.8833 28.2258 45.7072C27.3011 45.3549 26.8167 44.6063 26.9048 43.5935C26.9928 42.6688 27.5653 42.0083 28.534 41.8322C28.9743 41.7441 29.4587 41.7441 29.9431 41.7441C38.5736 41.7441 47.1601 41.7441 55.7907 41.7441C56.187 41.7441 56.5833 41.7441 56.9796 41.7882C58.0364 41.9203 58.7409 42.7129 58.829 43.7256C58.8731 44.7824 58.1685 45.6631 57.1117 45.8833C56.7594 45.9714 56.4072 45.9273 56.0549 45.9273C51.6075 45.8833 47.2042 45.8833 42.7568 45.8833Z" fill="#282828"/>
<path d="M42.5802 31.2647C46.8955 31.2647 51.2108 31.2647 55.526 31.2647C56.0104 31.2647 56.5388 31.3088 56.9792 31.4849C57.8598 31.8812 58.2561 32.6298 58.1681 33.5545C58.036 34.4792 57.5076 35.1397 56.5388 35.3158C56.1425 35.4039 55.7462 35.4039 55.3499 35.4039C46.8515 35.4039 38.309 35.4039 29.8105 35.4039C29.6784 35.4039 29.5023 35.4039 29.3702 35.4039C27.829 35.3598 26.9043 34.5672 26.9043 33.2903C26.9043 32.0133 27.873 31.2207 29.4142 31.2207C33.8176 31.2647 38.2209 31.2647 42.5802 31.2647Z" fill="#282828"/>
<path d="M42.2278 66.7114C38.0886 66.7114 33.9935 66.7114 29.8544 66.7114C29.4581 66.7114 29.0618 66.7114 28.6655 66.6674C27.6527 66.4912 27.0803 65.8748 26.9482 64.862C26.8161 63.8492 27.3004 63.1007 28.2692 62.7484C28.7095 62.5723 29.2379 62.5723 29.7663 62.5723C38.0886 62.5723 46.4109 62.5723 54.7333 62.5723C55.2176 62.5723 55.746 62.5723 56.2304 62.7484C57.1991 63.1007 57.6395 63.8492 57.5514 64.862C57.4193 65.8307 56.8469 66.4912 55.8341 66.6674C55.3938 66.7554 54.9094 66.7114 54.425 66.7114C50.3299 66.7114 46.2788 66.7114 42.2278 66.7114Z" fill="#282828"/>
<path d="M90.3565 38.0455C90.2684 43.4175 85.821 47.7328 80.537 47.5567C75.1209 47.3805 70.9377 43.0653 71.0258 37.7372C71.1138 32.2771 75.5172 28.1379 81.0654 28.226C86.2614 28.3581 90.4886 32.7614 90.3565 38.0455ZM86.2173 38.0014C86.2614 34.9191 83.8395 32.4092 80.8012 32.3651C77.8069 32.3211 75.297 34.787 75.209 37.7372C75.1649 40.7755 77.5427 43.2854 80.537 43.3295C83.6634 43.4175 86.1733 41.0397 86.2173 38.0014Z" fill="#282828"/>
</svg>
