<svg width="94" height="94" viewBox="0 0 94 94" fill="none" xmlns="http://www.w3.org/2000/svg">
<g clip-path="url(#clip0_3582_3980)">
<path d="M46.4407 94.0002C45.6946 93.478 45.4708 92.7692 45.5081 91.874C45.5827 90.1581 45.5081 88.4423 45.5081 86.6518C35.2129 86.055 26.2978 82.3248 18.9867 75.051C11.6756 67.7772 7.90813 58.8621 7.3113 48.455C5.55813 48.455 3.84226 48.4177 2.08908 48.455C1.19384 48.4923 0.485113 48.2684 -0.0371094 47.5224C-0.0371094 47.1494 -0.0371094 46.7764 -0.0371094 46.4034C0.485113 45.6573 1.19384 45.4335 2.08908 45.4708C3.80495 45.5454 5.52083 45.4708 7.3113 45.4708C7.90813 35.1383 11.6383 26.2232 18.9121 18.9494C26.2232 11.6383 35.101 7.87083 45.5081 7.274C45.5081 5.63273 45.5081 4.02876 45.5081 2.4248C45.5081 2.08908 45.5081 1.75337 45.5081 1.41765C45.5827 0.559716 46.1796 -0.0371094 46.9629 -0.0371094C47.7462 -0.0371094 48.3804 0.559716 48.4177 1.41765C48.455 2.98432 48.4177 4.55099 48.4177 6.08035C48.4177 6.45337 48.4177 6.78908 48.4177 7.274C58.7129 7.87083 67.628 11.601 74.9391 18.8748C82.2502 26.1859 86.0177 35.0637 86.6145 45.4708C88.2185 45.4708 89.7851 45.4708 91.3891 45.4708C91.7248 45.4708 92.0605 45.4708 92.3962 45.4708C93.3288 45.5081 93.9629 46.105 93.9629 46.9256C93.9629 47.7462 93.3661 48.3804 92.4335 48.3804C90.7923 48.4177 89.1137 48.3804 87.4724 48.3804C87.2486 48.3804 86.9875 48.3804 86.6518 48.3804C86.0923 58.6756 82.3248 67.5907 75.051 74.9018C67.7772 82.2129 58.8621 86.0177 48.455 86.5772C48.455 88.3304 48.4177 90.0835 48.455 91.7994C48.4923 92.6946 48.2684 93.4034 47.5224 93.9256C47.1867 94.0002 46.8137 94.0002 46.4407 94.0002ZM83.6677 45.5454C82.847 24.955 65.5018 10.5565 48.4923 10.4446C48.4923 10.7804 48.4923 11.1161 48.4923 11.4518C48.4923 13.0184 48.5296 14.5851 48.4923 16.1145C48.4923 17.047 47.8208 17.6438 47.0002 17.6438C46.2169 17.6438 45.62 17.047 45.5827 16.1518C45.5454 15.8161 45.5827 15.4804 45.5827 15.1446C45.5827 13.578 45.5827 11.974 45.5827 10.4073C26.7081 10.9296 10.8923 26.7081 10.4446 45.5454C10.743 45.5454 11.0415 45.5827 11.3399 45.5827C12.8319 45.5827 14.324 45.5827 15.8534 45.5827C17.0097 45.5827 17.6811 46.105 17.7184 47.0375C17.7184 47.97 17.047 48.5296 15.928 48.5296C15.0327 48.5296 14.1375 48.5296 13.2796 48.5296C12.347 48.5296 11.4145 48.5296 10.4819 48.5296C11.3026 69.12 28.5359 83.4438 45.6946 83.6677C45.6946 83.3692 45.6946 83.0708 45.6946 82.7724C45.6946 81.2803 45.6946 79.7883 45.6946 78.2589C45.6946 77.1026 46.2542 76.4311 47.1867 76.4685C48.0819 76.4685 48.6415 77.1399 48.6415 78.3335C48.6415 78.9304 48.6415 79.5645 48.6415 80.1613C48.6415 81.355 48.6415 82.5486 48.6415 83.705C67.4042 83.2573 83.2946 67.5534 83.7796 48.6042C83.4811 48.6042 83.1827 48.5669 82.8843 48.5669C81.4296 48.5669 80.0121 48.5669 78.5573 48.5669C78.3335 48.5669 78.1097 48.5669 77.9232 48.5669C77.0653 48.4923 76.5058 47.8208 76.5431 47.0375C76.5804 46.2542 77.1772 45.6573 78.0724 45.6573C79.7883 45.5081 81.6907 45.5454 83.6677 45.5454Z" fill="#282828"/>
<path d="M77.8482 34.653C76.6919 38.122 73.8942 39.8379 70.7982 41.1808C69.9403 41.5538 68.9704 41.7403 68.0379 41.9641C67.6649 42.0387 67.4411 42.1879 67.2546 42.5609C66.2847 44.4633 65.3895 46.403 64.2704 48.2308C63.7109 49.1633 62.7784 49.8347 61.995 50.6554C61.8831 50.8046 61.7339 50.9911 61.7339 51.1403C61.6966 51.476 61.7339 51.8117 61.7339 52.1474C62.3681 52.2967 63.0022 52.3713 63.599 52.5578C65.1284 53.0427 66.3593 53.826 66.7323 55.5046C67.0681 56.9967 66.3966 57.9665 64.8673 58.0784C62.8157 58.1903 60.7641 58.1903 58.7125 58.1903C58.4141 58.1903 58.0411 57.9292 57.8173 57.7054C56.6609 56.5863 55.5046 55.43 54.3855 54.2736C54.0871 53.9752 53.8633 53.8633 53.453 54.0498C53.08 54.199 52.6696 54.3109 52.2966 54.4228C52.4458 54.9824 52.6323 55.5046 52.6696 56.0268C52.7815 57.2205 52.1847 57.9665 50.9911 58.1157C50.3196 58.1903 49.6109 58.2276 48.9022 58.2276C44.6498 58.2276 40.3601 58.2276 36.1077 58.2276C34.8022 58.2276 33.795 57.78 33.0863 56.6609C32.9371 56.4371 32.5641 56.2506 32.2657 56.2506C31.445 56.176 30.6244 56.2133 29.8038 56.2506C29.5427 56.2506 29.2069 56.3998 29.0577 56.5863C28.1625 57.4816 27.6403 58.6006 27.4538 59.8689C27.3419 60.5776 27.6776 61.1371 28.0879 61.6594C29.7292 63.599 31.818 64.83 34.1307 65.7252C36.5927 66.6578 39.0919 66.434 41.5911 65.9117C44.6871 65.203 47.7831 64.3451 50.8419 63.5617C50.9911 63.5244 51.1403 63.4871 51.2522 63.4125C51.7371 63.2633 52.1474 63.3752 52.4085 63.7855C52.7069 64.2332 52.7069 64.6808 52.3339 65.0538C51.2522 66.0609 50.2077 67.18 49.0141 68.0379C46.1792 70.0522 42.9339 70.9474 39.4649 71.3205C39.1665 71.3578 38.9054 71.3951 38.6069 71.4324C37.6371 71.4324 36.6673 71.4324 35.6974 71.4324C35.0633 71.3578 34.4665 71.2832 33.8323 71.1713C30.8109 70.7236 27.976 69.8284 25.5141 68.0379C23.4252 66.5086 21.8585 64.5689 21.4855 61.9578C21.0006 58.6006 21.5974 55.3927 23.0895 52.3713C23.2014 52.1474 23.3133 51.9236 23.3133 51.6625C23.7982 45.7316 25.8871 40.4347 29.5054 35.772C31.2958 33.4594 33.4593 31.557 36.2942 30.6617C39.4276 29.6546 42.5236 30.1022 45.5823 31.072C46.9625 31.5197 48.3054 32.1538 49.7228 32.6014C52.4458 33.422 55.1688 33.422 57.8173 32.1911C58.153 32.0419 58.2649 31.8554 58.2276 31.4824C58.153 30.9974 58.1157 30.4752 58.153 29.9903C58.3022 27.7895 59.5704 26.7451 61.6966 27.2673C63.0022 27.603 64.2331 28.3117 65.5387 28.7967C65.9117 28.9459 66.2847 29.0951 66.6577 29.1324C69.3434 29.3189 71.9919 29.58 74.4911 30.5125C75.9831 31.072 77.2514 31.93 77.8109 33.534C77.8482 33.8324 77.8482 34.2427 77.8482 34.653ZM58.899 33.7951C56.0641 34.9887 54.3855 35.2498 51.476 34.8768C49.4244 34.6157 47.5593 33.8697 45.6569 33.0863C43.4934 32.1911 41.1807 31.8927 38.868 32.0419C36.2569 32.2284 34.1681 33.534 32.4149 35.399C28.6474 39.3157 26.5585 44.1276 25.626 49.3871C25.3276 51.1403 25.1784 52.8562 24.3577 54.4974C23.3879 56.4371 23.2014 58.6379 23.3879 60.7641C23.649 63.6363 25.3649 65.576 27.7895 66.9189C33.2355 69.9776 38.9054 70.0149 44.6871 67.8514C45.3585 67.5903 46.03 67.2173 46.6641 66.9189C44.9855 67.18 43.3442 67.5157 41.703 67.8514C38.1593 68.5974 34.6903 68.4482 31.4077 66.6951C29.4307 65.6506 27.603 64.3824 26.2601 62.5173C25.7006 61.734 25.2903 60.876 25.4022 59.9062C25.5887 58.0411 26.2974 56.4371 27.603 55.0943C28.2371 54.4601 28.9458 54.1244 29.8784 54.199C30.699 54.2363 31.5196 54.199 32.3403 54.199C33.3847 54.199 34.2054 54.6093 34.7276 55.5419C34.9887 56.0268 35.3617 56.2133 35.9212 56.2133C40.5093 56.2133 45.1347 56.2133 49.7228 56.176C50.0212 56.176 50.2823 56.1014 50.5808 56.1014C50.5061 55.43 50.1331 54.9824 49.5736 54.8332C48.6784 54.572 47.7458 54.3482 46.8506 54.199C45.8807 54.0871 45.5823 53.826 45.545 52.8935C45.4704 50.8419 44.9109 48.9395 43.8292 47.1863C43.0458 45.9554 42.076 44.9482 40.9196 44.053C40.2482 43.5681 40.2109 42.8593 40.8077 42.4117C41.2927 42.0014 41.7776 42.1879 42.2252 42.5236C44.9109 44.5752 46.6641 47.2236 47.2609 50.5435C47.4847 51.8117 47.8577 52.4086 49.1633 52.5205C50.4688 52.6697 51.6625 52.4459 52.9307 52.0355C52.5204 51.2149 52.1474 50.4689 51.7744 49.7228C51.4387 49.0514 51.5879 48.5292 52.1847 48.2308C52.7442 47.9697 53.2292 48.1562 53.5649 48.8276C54.1244 49.9466 54.6839 51.0284 55.2435 52.1474C55.3554 52.3713 55.5046 52.6324 55.6911 52.8189C56.6982 53.8633 57.7427 54.8705 58.7871 55.8776C58.9736 56.0268 59.2347 56.176 59.4958 56.176C60.9506 56.2133 62.4427 56.176 63.8974 56.176C64.1585 56.176 64.4196 56.1014 64.7181 56.0641C64.6434 55.2808 64.1212 54.8705 63.5244 54.684C62.6665 54.4228 61.7712 54.2736 60.876 54.1617C60.0554 54.0498 59.7196 53.7514 59.6823 52.9308C59.6823 52.0355 59.6823 51.1403 59.6823 50.2078C59.6823 49.6855 59.9434 49.3498 60.3911 49.126C60.8014 48.9022 61.2863 48.6784 61.5474 48.3054C62.2561 47.4847 62.9649 46.6268 63.4498 45.657C64.2704 44.0903 64.9792 42.4863 65.6879 40.8824C65.9117 40.3974 66.1728 40.0244 66.7323 40.0244C69.53 39.8752 71.9173 38.6816 73.9688 36.8538C74.6403 36.257 75.1998 35.4736 75.6474 34.6903C76.0577 33.9816 75.8712 33.4593 75.1998 33.0117C74.7522 32.7133 74.23 32.4149 73.7077 32.2284C71.3577 31.3332 68.8958 31.072 66.4339 30.9974C65.7998 30.9974 65.2776 30.8109 64.7181 30.5125C63.599 29.953 62.4054 29.4681 61.2117 29.0205C60.8014 28.8713 60.3911 28.9459 60.3165 29.5054C60.0927 30.8855 60.2046 32.1911 61.3236 33.1982C61.8085 33.6459 61.8831 34.1681 61.5101 34.653C61.1371 35.1006 60.6149 35.1752 60.13 34.8022C59.6823 34.5038 59.3466 34.1681 58.899 33.7951Z" fill="#282828"/>
<path d="M68.7842 32.5268C69.6049 32.5268 70.2763 33.2355 70.2763 34.0935C70.239 34.9141 69.5303 35.5855 68.7096 35.5482C67.9263 35.5109 67.2549 34.8395 67.2549 34.0189C67.2549 33.1982 67.9636 32.4895 68.7842 32.5268Z" fill="#282828"/>
</g>
<defs>
<clipPath id="clip0_3582_3980">
<rect width="94" height="94" fill="white"/>
</clipPath>
</defs>
</svg>
