<svg width="99" height="56" viewBox="0 0 99 56" fill="none" xmlns="http://www.w3.org/2000/svg">
<g clip-path="url(#clip0_3636_3628)">
<path d="M98.66 55.8H0V38.53H91.43L98.66 55.8Z" fill="#AAAAA9"/>
<mask id="mask0_3636_3628" style="mask-type:luminance" maskUnits="userSpaceOnUse" x="0" y="0" width="99" height="56">
<path d="M98.66 0H0V55.8H98.66V0Z" fill="white"/>
</mask>
<g mask="url(#mask0_3636_3628)">
<path d="M6.76027 29.5599L5.96027 28.8399L6.65027 28.0199L10.3103 23.6399V17.2299C8.85027 15.6399 7.95027 13.5399 7.95027 10.6799V10.5899C7.95027 7.87995 8.80027 5.51995 10.3103 3.63995V0.319946H0.280273V33.6499H10.3203V32.1099C9.04027 31.3799 7.85027 30.5299 6.77027 29.5599" fill="#0C79BE"/>
<path d="M32.29 29.56L31.49 28.84L32.18 28.02L36.36 23.03C36.2 17.08 31.51 14.67 24.04 13.05C19.46 12.01 18.32 11.35 18.32 9.84V9.74C18.32 8.56 19.41 7.61 21.63 7.61C24.55 7.61 27.85 8.74 30.86 10.85L34.05 3.35C30.73 1.14 26.77 0 21.86 0C13.92 0 9.05 4.44 9.05 10.59V10.68C9.05 17.48 14.49 19.47 21.53 21.08C26.02 22.12 27.11 22.88 27.11 24.25V24.34C27.11 25.76 25.79 26.61 23.33 26.61C19.5 26.61 15.86 25.24 12.6 22.64L7.5 28.74C11.57 32.38 17.14 34.22 23 34.22C27.54 34.22 31.22 32.93 33.57 30.59C33.13 30.26 32.7 29.92 32.29 29.56Z" fill="#0C79BE"/>
<path d="M66.1405 0.329956L52.0605 33.65H61.7005L64.0605 27.74H76.8205L79.2305 33.65H89.0605L74.9805 0.329956H66.1405ZM66.7505 20.6L70.4905 11.19L74.1705 20.6H66.7505Z" fill="#0C79BE"/>
<path d="M51.25 32.77L58.21 16.23C56.1 14.78 53.16 13.82 49.57 13.04C44.99 12 43.85 11.34 43.85 9.83V9.73C43.85 8.55 44.94 7.6 47.16 7.6C50.09 7.6 53.39 8.73 56.41 10.85L59.6 3.35C56.29 1.15 52.31 0 47.4 0C39.46 0 34.59 4.44 34.59 10.59V10.68C34.59 17.48 40.03 19.47 47.07 21.08C51.56 22.12 52.65 22.88 52.65 24.25V24.34C52.65 25.76 51.33 26.61 48.87 26.61C45.04 26.61 41.41 25.24 38.14 22.64L33.04 28.74C37.1 32.38 42.9 33.77 48.76 33.77C49.49 33.77 50.2 33.73 50.88 33.66L51.26 32.77H51.25Z" fill="#0C79BE"/>
<path d="M80.8007 0.290039C81.9207 0.290039 82.8407 1.21004 82.8407 2.33004C82.8407 3.45004 81.9207 4.37004 80.8007 4.37004C79.6807 4.37004 78.7607 3.45004 78.7607 2.33004C78.7607 1.21004 79.6807 0.290039 80.8007 0.290039ZM80.8007 4.07004C81.7707 4.07004 82.5407 3.29004 82.5407 2.33004C82.5407 1.37004 81.7607 0.590039 80.8007 0.590039C79.8407 0.590039 79.0607 1.37004 79.0607 2.33004C79.0607 3.29004 79.8407 4.07004 80.8007 4.07004ZM80.3607 3.49004H80.0607V1.15004H80.9607C81.4907 1.15004 81.7007 1.38004 81.7007 1.80004C81.7007 2.22004 81.4307 2.41004 81.1107 2.47004L81.8107 3.50004H81.4807L80.7807 2.47004H80.3607V3.50004V3.49004ZM80.3607 2.20004H80.7407C81.0607 2.20004 81.4207 2.18004 81.4207 1.79004C81.4207 1.49004 81.1507 1.40004 80.8907 1.40004H80.3607V2.19004V2.20004Z" fill="#0C79BE"/>
<path d="M9.25004 50.33H9.19004L5.87004 45.37V52.93H4.04004V42.35H6.02004L9.25004 47.35L12.47 42.35H14.45V52.93H12.59V45.34L9.25004 50.33Z" fill="white"/>
<path d="M25.3305 44.01H19.3405V46.76H24.6505V48.43H19.3405V51.27H25.4005V52.93H17.4805V42.35H25.3305V44.01Z" fill="white"/>
<path d="M33.1199 50.33H33.0599L29.7499 45.37V52.93H27.9199V42.35H29.8999L33.1199 47.35L36.3399 42.35H38.3199V52.93H36.4599V45.34L33.1199 50.33Z" fill="white"/>
<path d="M49.5806 45.05C49.5806 46.35 48.8506 47.01 48.0706 47.42C49.3106 47.84 50.1706 48.56 50.1706 50.01C50.1706 51.91 48.6106 52.93 46.2506 52.93H41.3506V42.34H46.1006C48.2306 42.34 49.5806 43.38 49.5806 45.05ZM47.7206 45.35C47.7206 44.49 47.0506 43.99 45.8606 43.99H43.1806V46.8H45.7206C46.9106 46.8 47.7206 46.33 47.7206 45.35ZM48.3106 49.81C48.3106 48.9 47.6006 48.37 46.1306 48.37H43.1806V51.27H46.2706C47.5406 51.27 48.3106 50.77 48.3106 49.8" fill="white"/>
<path d="M60.4301 44.01H54.4401V46.76H59.7501V48.43H54.4401V51.27H60.5001V52.93H52.5801V42.35H60.4301V44.01Z" fill="white"/>
<path d="M69.8105 52.94L67.2105 49.25H64.8805V52.94H63.0205V42.35H67.7405C70.1805 42.35 71.6705 43.63 71.6705 45.71C71.6705 47.47 70.6305 48.52 69.1405 48.93L72.0005 52.94H69.8105ZM67.5905 44.04H64.8805V47.6H67.6005C68.9305 47.6 69.7805 46.9 69.7805 45.81C69.7805 44.65 68.9605 44.04 67.5905 44.04Z" fill="white"/>
</g>
</g>
<defs>
<clipPath id="clip0_3636_3628">
<rect width="98.66" height="55.8" fill="white"/>
</clipPath>
</defs>
</svg>
