<svg width="119" height="89" viewBox="0 0 119 89" fill="none" xmlns="http://www.w3.org/2000/svg">
<g clip-path="url(#clip0_3592_3989)">
<path d="M0 53.4002C0.946699 51.8254 2.55609 52.2549 3.9288 52.1595C5.91687 46.8624 9.08831 44.3809 13.7745 44.4764C18.0346 44.5718 21.3007 47.2919 22.9101 52.2072C23.4308 52.2072 24.0461 52.2072 24.6142 52.2072C26.1762 52.2549 26.8862 52.923 26.8862 54.5455C26.8862 59.8426 26.8862 65.0919 26.8862 70.389C26.8862 70.5798 26.8862 70.7707 26.9336 71.0093C28.9216 70.6753 30.6257 68.4801 30.7204 66.0463C30.7677 64.7101 30.7204 63.374 30.7204 62.0378C30.7204 55.1659 30.7204 48.2463 30.7204 41.3745C30.7204 34.9798 34.7438 30.9713 41.0394 30.9235C41.8914 30.9235 42.9801 31.353 43.4061 30.16C43.5481 29.826 43.5008 29.2056 43.2641 28.967C41.9861 27.5831 40.6134 26.2946 39.288 24.9107C38.0573 23.6699 38.0573 22.7155 39.288 21.5225C43.9741 17.0367 49.5123 14.7938 55.9972 15.7482C60.0207 16.3209 62.8608 18.7546 64.9435 22.1906C65.4642 23.0018 65.2275 23.8131 64.7542 24.5766C63.4288 26.7241 62.1508 28.9193 60.8254 31.1622C63.3815 33.3096 65.8902 35.3616 68.3516 37.5568C69.2983 38.4158 70.2924 38.8453 71.5704 38.7021C74.0792 38.4158 75.9252 40.0383 77.9606 41.1359C78.718 41.5176 78.8127 42.4243 78.5286 43.2833C78.1026 44.6195 77.5819 45.9557 77.2506 47.2919C77.1559 47.7214 77.2033 48.3418 77.4399 48.6758C84.3982 58.6496 91.3564 68.6233 98.362 78.597C98.646 78.9788 99.2613 79.2651 99.6874 79.2651C103.379 79.3128 107.024 79.3128 110.716 79.3128C112.515 79.3128 113.13 79.9809 113.178 81.7943C113.178 83.4168 113.178 85.0394 113.178 86.6142C113.178 88.2367 112.468 88.9525 110.953 88.9525C104.752 88.9525 98.5513 88.9525 92.3504 88.9525C90.8831 88.9525 90.173 88.2367 90.173 86.7096C90.173 85.0871 90.173 83.4646 90.173 81.8898C90.173 79.9332 90.7884 79.3128 92.7765 79.3128C93.1551 79.3128 93.4865 79.3128 94.0072 79.3128C93.8652 79.0265 93.7705 78.7402 93.6285 78.5493C87.1909 69.3868 80.8007 60.1766 74.3158 51.0142C74.0318 50.6324 73.4165 50.2983 72.9905 50.3461C70.9551 50.5847 69.4877 49.8689 68.1623 48.3418C67.5469 47.5782 66.6002 47.101 65.7482 46.5761C62.4348 44.3332 59.1213 42.138 55.7132 39.8474C55.2399 40.6587 54.7665 41.4222 54.2932 42.2335C56.8966 44.5241 59.4527 46.767 62.0088 49.0576C64.0442 50.8233 66.0796 52.589 68.0203 54.4024C68.4936 54.8796 68.9197 55.5477 69.109 56.2158C70.8604 63.708 72.6118 71.248 74.3158 78.7879C74.5052 79.5992 74.8365 80.0286 75.6412 80.2195C76.7773 80.5059 77.8186 80.9831 78.9547 81.3171C80.0907 81.6512 80.6587 82.4147 80.6587 83.6077C80.6114 84.753 80.6587 85.8506 80.6587 86.9959C80.6114 88.2844 79.9014 89.048 78.6233 89.048C74.2212 89.0957 69.819 89.0957 65.4169 89.048C64.1388 89.048 63.4288 88.2844 63.3815 86.9959C63.3341 85.8029 63.2868 84.5622 63.4288 83.3691C63.5235 82.701 63.9021 82.0329 64.3282 81.508C64.7542 80.9831 64.9435 80.6013 64.7068 79.9332C62.5294 73.9681 60.3994 68.0029 58.222 62.0378C58.0326 61.5128 57.6066 61.1311 57.0859 60.3675C55.9972 64.3284 55.0505 67.8597 54.0565 71.4388C53.4885 73.4908 52.9678 75.5429 52.3524 77.5949C52.1631 78.263 52.3051 78.6925 52.9204 79.0742C54.1038 79.79 55.2872 80.6013 56.4232 81.4126C57.6539 82.2715 57.8906 83.0351 57.2753 84.3713C56.7546 85.5166 56.1866 86.6142 55.6185 87.7118C55.0032 88.9048 54.2932 89.1911 53.0625 88.8571C48.7076 87.6163 44.4002 86.3756 40.0453 85.1348C38.9093 84.8008 38.3886 84.0849 38.436 82.8919C38.436 81.7943 38.4833 80.6967 38.436 79.6469C38.3886 78.597 38.862 77.7857 39.8087 77.4994C42.0334 76.879 42.5068 75.3997 42.6014 73.2045C42.9328 66.2849 43.5481 59.3654 43.9741 52.4935C44.0215 52.0163 43.7848 51.3482 43.4535 51.1096C38.1993 46.9579 37.0159 41.4222 40.14 35.5048C40.2347 35.3616 40.282 35.2185 40.3294 35.0753C37.2999 34.7412 34.6018 37.4613 34.6018 40.8018C34.5545 46.242 34.6018 51.6823 34.6018 57.1225C34.6018 59.6517 34.6018 62.1809 34.6018 64.7579C34.6018 70.4367 32.3771 73.5863 27.0756 75.352C26.8862 76.4018 27.0282 77.6903 26.5076 78.4538C26.0342 79.1697 24.8035 79.3128 23.8568 79.7423C24.8982 81.3171 25.4189 83.2737 24.6142 85.3734C24.0461 86.805 23.0994 87.8549 21.7741 88.4753C18.5553 90.0501 15.6679 88.6662 13.5378 84.5622C11.4077 88.7139 8.33095 90.0978 5.06484 88.3799C1.94073 86.7096 1.23071 83.226 3.36078 79.4083C2.0354 79.5037 0.852029 79.3605 0.0946699 78.1675C0 69.864 0 61.6083 0 53.4002ZM22.9574 75.352C22.9574 68.9096 22.9574 62.515 22.9574 56.1203C16.5672 56.1203 10.2717 56.1203 3.9288 56.1203C3.9288 56.7407 3.9288 57.3134 3.9288 57.9815C5.72753 57.9815 7.43158 57.9815 9.13564 57.9815C10.8397 57.9815 11.5497 58.6496 11.5497 60.4152C11.5497 63.8989 11.5497 67.4303 11.5497 70.9139C11.5497 72.8227 10.887 73.4431 9.04097 73.4431C7.33691 73.4431 5.63286 73.4431 3.9288 73.4431C3.9288 74.1589 3.9288 74.7316 3.9288 75.3042C10.2717 75.352 16.5672 75.352 22.9574 75.352ZM69.7717 76.0201C68.399 70.1026 67.0736 64.2329 65.7482 58.3632C65.7009 58.1723 65.7009 57.9337 65.6062 57.7906C65.3695 57.3611 65.1329 56.8361 64.8015 56.5498C61.5827 53.6866 58.2693 50.9664 55.1925 48.0077C51.6424 44.6195 47.5243 42.138 43.3588 39.6565C43.1221 39.5134 42.8854 39.4656 42.6488 39.3702C41.7021 42.6152 42.7908 45.7171 45.6782 47.7691C50.4117 51.1573 55.1925 54.4501 59.8787 57.8383C60.636 58.3632 61.2987 59.2699 61.6301 60.1289C63.4761 65.0442 65.2275 70.0072 67.0263 74.9702C67.6889 76.8313 67.6889 76.8313 69.6297 76.1632C69.5823 76.1632 69.6297 76.1155 69.7717 76.0201ZM46.3409 73.4908C47.1929 73.4908 47.9976 73.5863 48.7076 73.4431C49.039 73.3954 49.5597 73.0136 49.6543 72.7273C50.9324 68.1461 52.2104 63.5171 53.4411 58.8882C53.5358 58.6018 53.3938 58.0292 53.2045 57.8383C51.5004 56.5498 49.7017 55.3568 47.7609 53.9729C47.2403 60.5584 46.8142 66.9053 46.3409 73.4908ZM74.3632 43.6651C72.9905 42.2812 71.3811 42.6152 69.8664 42.4721C69.0143 42.3766 68.0676 42.0903 67.4049 41.5654C64.4702 39.227 61.5827 36.7455 58.7426 34.3118C55.2399 31.3053 55.6659 32.3075 55.7132 28.2512C55.7132 27.5353 55.4292 26.9627 54.7192 27.1059C54.3405 27.2013 53.8671 27.8217 53.8198 28.2512C53.7251 29.7305 53.8198 31.2099 53.7725 32.7369C53.7251 33.5482 54.0092 33.9777 54.6718 34.3595C55.7132 34.9798 56.7546 35.6957 57.7486 36.4115C62.3874 39.6565 66.9789 42.8538 71.6177 46.0989C72.4698 46.7193 73.5111 46.3852 73.8425 45.3831C73.9845 44.8581 74.1738 44.2378 74.3632 43.6651ZM49.891 27.5353C49.7963 27.4876 49.749 27.4876 49.6543 27.4399C47.9029 30.2077 46.1989 32.9278 44.4002 35.7911C46.7196 37.175 48.9443 38.5112 51.1691 39.8474C51.6424 39.0361 52.0684 38.3203 52.4944 37.6045C52.2104 37.3659 51.9737 37.1273 51.6897 36.9841C50.2697 36.316 49.7963 35.2185 49.891 33.6437C49.9857 31.6394 49.891 29.5874 49.891 27.5353ZM46.2936 77.404C46.3409 77.4994 46.3409 77.5949 46.3882 77.6903C45.6782 78.263 45.0155 78.8833 44.3055 79.456C43.8321 79.79 43.2168 79.9332 42.7434 80.315C42.5068 80.5059 42.2701 80.9353 42.3174 81.2694C42.3174 81.508 42.6961 81.842 42.9328 81.9375C45.9622 82.8442 48.9443 83.7032 51.9738 84.5144C52.2578 84.6099 52.6364 84.3713 52.9678 84.2758C52.7784 83.9895 52.6838 83.56 52.4471 83.3691C51.3111 82.5579 50.1277 81.7943 48.9916 81.0308C48.1396 80.4581 47.8083 79.6469 48.0923 78.6447C48.187 78.263 48.2816 77.8812 48.3763 77.4517C47.6189 77.404 46.9562 77.404 46.2936 77.404ZM18.65 52.1595C18.0819 49.8689 15.7152 48.2463 13.1591 48.3418C10.7924 48.4372 8.61496 50.1552 8.23628 52.1595C11.7391 52.1595 15.1945 52.1595 18.65 52.1595ZM7.57359 69.53C7.57359 66.9053 7.57359 64.4238 7.57359 61.9423C6.29555 61.9423 5.06484 61.9423 3.88146 61.9423C3.88146 64.5193 3.88146 67.0008 3.88146 69.53C5.15951 69.53 6.34288 69.53 7.57359 69.53ZM109.344 83.226C104.184 83.226 99.1667 83.226 94.1018 83.226C94.1018 83.8463 94.1018 84.419 94.1018 84.9917C99.214 84.9917 104.232 84.9917 109.344 84.9917C109.344 84.419 109.344 83.8463 109.344 83.226ZM52.0211 23.7654C53.4885 23.2404 54.9085 22.8587 56.2339 23.5268C57.4173 24.1471 58.364 25.1016 59.4527 25.9605C59.8313 25.3402 60.3047 24.5766 60.7307 23.7654C60.8727 23.479 60.8254 22.9541 60.636 22.7155C59.3107 20.9498 57.5119 19.8522 55.3345 19.5182C55.0505 19.4705 54.6245 19.6613 54.4825 19.9C53.6305 21.1407 52.8258 22.4769 52.0211 23.7654ZM66.8843 84.9439C70.4344 84.9439 73.6058 84.9439 76.7299 84.9439C76.7773 84.8485 76.7773 84.7053 76.8246 84.6099C76.0199 84.3236 75.2152 83.9418 74.3632 83.7509C72.4224 83.226 70.671 82.5579 70.7657 79.9332C70.0557 80.1241 69.535 80.2195 69.0143 80.3627C69.3457 81.6512 68.7303 82.4624 67.973 83.226C67.4996 83.6554 67.3103 84.2758 66.8843 84.9439ZM43.3588 23.0496C44.2582 24.0994 45.1102 25.0538 46.0095 26.1037C47.3349 24.0517 48.5656 22.0474 49.9857 19.8045C47.2403 20.4726 45.0629 21.5702 43.3588 23.0496ZM9.60899 83.1782C9.60899 82.1284 8.8043 81.2694 7.76293 81.2217C6.72156 81.174 5.8222 82.0329 5.77486 83.0828C5.72753 84.1804 6.62689 85.0871 7.66826 85.0871C8.70963 85.0394 9.56166 84.1804 9.60899 83.1782ZM19.218 81.2217C18.1766 81.2217 17.3246 82.0807 17.2772 83.0828C17.2299 84.1327 18.0819 85.0394 19.1233 85.0394C20.212 85.0871 21.1114 84.1804 21.1114 83.0828C21.1114 82.0807 20.2593 81.2217 19.218 81.2217ZM12.1177 79.3128C12.5911 80.2673 12.9698 81.0785 13.3958 81.9375C13.8218 81.0308 14.2478 80.1718 14.6738 79.3128C13.8691 79.3128 13.0644 79.3128 12.1177 79.3128Z" fill="#282828"/>
<path d="M67.2158 0C72.5173 0 76.7775 4.39035 76.7775 9.73512C76.7301 15.0322 72.4227 19.3271 67.2158 19.3271C61.867 19.3271 57.5595 14.9367 57.6068 9.54424C57.6068 4.29491 61.9616 0 67.2158 0ZM72.8487 9.59196C72.8487 7.15818 71.4286 5.10617 69.2039 4.24718C66.9318 3.3882 64.4704 4.00858 62.861 5.82198C61.3936 7.4445 61.0149 9.73512 61.9143 11.5485C63.0504 10.0214 64.1864 8.49437 65.3224 7.01501C66.4111 5.58338 67.3105 5.44021 68.7779 6.5378C70.1033 7.53995 71.4286 8.54209 72.8487 9.59196ZM64.4704 14.6027C66.6478 16.1298 69.8666 15.5571 71.3813 13.3619C70.1033 12.4075 68.8725 11.4531 67.5472 10.4509C66.4585 11.8826 65.4644 13.2665 64.4704 14.6027Z" fill="#282828"/>
<path d="M119 71.5336C119 74.7309 116.35 77.3555 113.178 77.3078C110.054 77.2601 107.498 74.6354 107.498 71.4858C107.498 68.2885 110.101 65.6639 113.32 65.7116C116.444 65.7593 119 68.384 119 71.5336ZM113.178 73.4424C114.22 73.4424 115.072 72.6312 115.119 71.5813C115.166 70.4837 114.267 69.577 113.178 69.577C112.137 69.577 111.285 70.4837 111.285 71.4858C111.332 72.5834 112.184 73.4424 113.178 73.4424Z" fill="black"/>
<path d="M111.379 61.7984C111.379 60.51 111.379 59.3169 111.379 58.0762C112.61 58.0762 113.793 58.0762 115.071 58.0762C115.071 59.2692 115.071 60.4622 115.071 61.7984C113.888 61.7984 112.657 61.7984 111.379 61.7984Z" fill="black"/>
<path d="M99.877 59.9863C101.155 59.9863 102.338 59.9863 103.569 59.9863C103.569 61.2271 103.569 62.4201 103.569 63.7086C102.386 63.7086 101.155 63.7086 99.877 63.7086C99.877 62.5156 99.877 61.3225 99.877 59.9863Z" fill="black"/>
<path d="M95.8533 67.6215C94.6226 67.6215 93.4392 67.6215 92.1611 67.6215C92.1611 66.3808 92.1611 65.14 92.1611 63.8516C93.3918 63.8516 94.5752 63.8516 95.8533 63.8516C95.8533 65.0923 95.8533 66.2853 95.8533 67.6215Z" fill="black"/>
<path d="M103.569 73.3961C102.338 73.3961 101.155 73.3961 99.877 73.3961C99.877 72.2031 99.877 70.9623 99.877 69.6738C101.06 69.6738 102.291 69.6738 103.569 69.6738C103.569 70.9146 103.569 72.1076 103.569 73.3961Z" fill="black"/>
</g>
<defs>
<clipPath id="clip0_3592_3989">
<rect width="119" height="89" fill="white"/>
</clipPath>
</defs>
</svg>
