<svg width="83" height="83" viewBox="0 0 83 83" fill="none" xmlns="http://www.w3.org/2000/svg">
<g clip-path="url(#clip0_3582_3955)">
<path d="M0 77.4557C0 62.1865 0 46.8746 0 31.6053C0.170431 31.5626 0.170431 31.4347 0.213039 31.3067C1.27823 27.8093 3.53645 26.1459 7.20072 26.1459C8.39374 26.1459 9.58675 26.1032 10.7798 26.1032C12.3563 27.4681 13.8475 28.9609 15.211 30.539C12.4841 30.539 9.75719 30.539 7.03029 30.539C5.24076 30.539 4.47382 31.3067 4.47382 33.0981C4.47382 47.3864 4.47382 61.6747 4.47382 75.9629C4.47382 77.7543 5.24076 78.522 6.98768 78.522C28.6324 78.522 50.2772 78.522 71.922 78.522C72.9019 78.522 73.8819 78.3514 74.7767 77.9249C77.5036 76.6454 79.0375 73.7024 78.4836 70.7594C77.8871 67.6885 75.288 65.4706 72.0072 65.428C69.3229 65.3853 66.6386 65.428 63.9117 65.428C61.8239 65.428 61.0996 64.7029 61.0996 62.5703C61.0996 52.2486 61.0996 41.9696 61.0996 31.6479C61.0996 30.7523 60.9292 30.4537 59.9492 30.4537C53.3876 30.4963 46.8686 30.4963 40.307 30.4963C39.9661 30.4963 39.6253 30.539 39.2844 30.539C39.114 29.0462 39.1992 27.5534 39.2418 26.0606C46.2295 26.0606 53.2171 26.0606 60.2048 26.1032C60.9718 26.1032 61.057 25.8473 61.057 25.1649C61.0144 21.966 61.057 18.7672 61.057 15.5683C61.057 13.8622 61.9091 13.0092 63.6134 13.0092C66.3403 13.0092 69.0672 12.9665 71.7941 13.0092C77.2053 13.0945 81.4235 16.5066 82.6165 21.6675C82.8296 22.5631 82.8722 23.5015 82.8722 24.3972C82.8722 40.093 82.8722 55.7887 82.8722 71.4419C82.8722 77.0292 79.5062 81.3797 74.2228 82.6166C73.8393 82.7019 73.4132 82.5313 73.115 82.9151C50.5329 82.9151 27.9933 82.9151 5.41119 82.9151C5.32598 82.6166 5.02772 82.7019 4.81468 82.6166C2.55647 81.9768 1.02259 80.4414 0.298255 78.0529C0.213039 77.8396 0.298255 77.5411 0 77.4557ZM78.5262 63.2101C78.5688 62.9542 78.5688 62.9116 78.5688 62.8262C78.5688 49.8602 78.6114 36.8941 78.5688 23.928C78.5688 20.2173 75.7993 17.5303 72.0924 17.445C70.3029 17.4023 68.4707 17.4876 66.6812 17.4023C65.7438 17.3597 65.4882 17.6156 65.4882 18.5539C65.5308 31.0508 65.5308 43.5477 65.5308 56.002C65.5308 57.3668 65.5734 58.7317 65.5308 60.0965C65.4882 60.8216 65.6586 61.1202 66.4682 61.0775C67.7464 60.9922 69.0673 61.1202 70.3455 61.0349C73.2002 60.9496 76.0123 61.3334 78.5262 63.2101Z" fill="#282828"/>
<path d="M0 11.346C0.76694 8.82959 2.7269 7.20883 4.51643 5.46012C5.58162 4.39383 6.68943 3.28489 7.75462 2.2186C10.6946 -0.68171 14.5293 -0.724361 17.4692 2.2186C22.7952 7.50739 28.0785 12.7962 33.3619 18.1276C34.8106 19.5778 36.2166 21.0706 37.7079 22.4354C38.8583 23.4591 39.54 24.6107 39.3696 26.1461C39.327 27.6389 39.2418 29.1318 39.4122 30.6246C39.4122 32.5439 39.4122 34.4205 39.4122 36.3399C39.4122 38.5578 38.6027 39.3255 36.3871 39.3681C32.8506 39.3681 29.3142 39.3681 25.7777 39.3681C24.6273 39.3681 23.6899 39.0269 22.8804 38.1739C20.3665 35.6148 17.7675 33.0983 15.211 30.5393C13.8475 28.9611 12.3563 27.4683 10.7798 26.1035C8.52156 23.843 6.30595 21.5824 4.09035 19.3645C2.42864 17.7438 0.681725 16.1657 0 13.8198C0 12.9668 0 12.1564 0 11.346ZM34.981 30.2833C34.981 29.0038 34.981 27.6816 34.981 26.4021C34.981 25.9755 34.8958 25.6343 34.5975 25.2931C27.8229 18.5968 21.0909 11.9005 14.3588 5.20421C13.251 4.09527 11.9728 4.09527 10.865 5.24686C8.94764 7.08088 7.0729 8.95755 5.19815 10.8769C4.09035 11.9858 4.09035 13.308 5.19815 14.417C11.9302 21.1133 18.7048 27.8096 25.4369 34.5059C25.7351 34.8044 25.9908 34.9324 26.4168 34.9324C29.0159 34.9324 31.615 34.8897 34.1715 34.9324C34.8532 34.9324 34.981 34.7191 34.9384 34.122C34.9384 32.7998 34.981 31.5629 34.981 30.2833Z" fill="#282828"/>
</g>
<defs>
<clipPath id="clip0_3582_3955">
<rect width="83" height="83" fill="white"/>
</clipPath>
</defs>
</svg>
