<svg width="80" height="80" viewBox="0 0 80 80" fill="none" xmlns="http://www.w3.org/2000/svg">
<g clip-path="url(#clip0_3582_3945)">
<path d="M26.8829 79.9995C26.326 79.8757 25.7692 79.7829 25.2433 79.6282C20.1079 78.1433 17.0144 74.7713 16.0244 69.5122C15.8388 68.4913 16.3647 67.6561 17.2618 67.5014C18.1899 67.3467 18.9014 67.9345 19.0871 68.9863C20.0151 73.8432 23.6346 76.8749 28.5844 76.8749C35.8852 76.8749 43.217 76.8749 50.5178 76.8749C56.0244 76.8749 60.0151 72.8842 60.0151 67.3776C60.0151 61.8092 60.0151 56.2408 60.0151 50.6723C60.0151 50.4248 60.0151 50.1773 60.0151 49.9298C59.9533 49.8989 59.8605 49.837 59.7986 49.8061C59.3655 50.2701 58.9633 50.7651 58.4993 51.1982C57.7568 51.9097 56.8597 51.9407 56.21 51.322C55.5913 50.7032 55.5913 49.7442 56.3028 49.0327C57.664 47.6715 59.0252 46.2794 60.3864 44.9492C61.1598 44.1758 62.026 44.1758 62.7994 44.9492C64.1605 46.3104 65.5217 47.6715 66.8829 49.0327C67.6253 49.7752 67.6253 50.6723 67.0066 51.322C66.357 51.9716 65.4289 51.9407 64.6555 51.1982C64.2224 50.7651 63.8202 50.2701 63.3871 49.837C63.2943 49.868 63.2325 49.8989 63.1396 49.9298C63.1396 50.1773 63.1396 50.4558 63.1396 50.7032C63.1396 56.1789 63.0159 61.6545 63.1706 67.0992C63.3562 74.2454 58.0043 79.3807 52.3121 79.9685C52.2193 79.9685 52.1265 80.0304 52.0337 80.0923C43.6501 79.9995 35.2665 79.9995 26.8829 79.9995Z" fill="#282828"/>
<path d="M70.7195 21.0356C69.513 21.0975 52.6839 21.0356 51.4774 21.0665C49.1572 21.0975 47.4558 22.6752 47.4248 25.0263C47.363 27.9962 47.363 30.966 47.4248 33.9358C47.4558 36.2251 49.0954 37.8956 51.3846 37.8956C58.5617 37.9266 65.7698 37.9266 72.9469 37.8956C75.2671 37.8956 76.8757 36.1632 76.9067 33.843C76.9067 30.9351 76.9376 27.9962 76.9067 25.0882C76.9067 22.768 75.2361 21.0975 72.9159 21.0665C71.6166 21.0356 70.3173 21.0975 69.018 21.0356C67.7187 20.9737 66.9453 19.7982 67.564 18.7773C67.7806 18.4061 68.2756 18.0039 68.6468 18.0039C70.5029 17.942 72.421 17.7873 74.2462 18.0967C77.2779 18.5917 79.134 20.5716 79.8765 23.5414C79.9074 23.727 79.9693 23.8817 80.0312 24.0673C80.0312 27.7177 80.0312 31.3682 80.0312 35.0186C79.9074 35.4208 79.7837 35.792 79.6599 36.1941C78.7009 39.1021 76.1023 41.0201 72.885 41.0201C65.7388 41.0511 58.5617 41.082 51.4155 41.0201C47.332 40.9892 44.3931 38.0194 44.3003 33.9358C44.2384 30.966 44.2384 27.9962 44.3003 25.0263C44.3931 20.8809 47.4248 17.973 51.5393 17.942C52.7149 17.942 69.4511 17.942 70.6267 17.942L70.7195 21.0356Z" fill="#282828"/>
<path d="M17.8812 0C21.346 0 24.8108 0 28.2756 0C32.6995 0 35.7312 3.03171 35.7621 7.45553C35.7621 10.1779 35.7621 12.9312 35.7621 15.6535C35.7312 20.0773 32.7304 23.109 28.3066 23.109C21.346 23.109 14.4164 23.109 7.45584 23.109C3.06296 23.109 0.03125 20.0773 0.03125 15.7154C0.03125 12.9312 0.03125 10.1469 0.03125 7.36272C0.03125 3.06264 3.03202 0.0309358 7.3321 0C10.8588 0 14.3545 0 17.8812 0ZM17.8503 19.9845C21.377 19.9845 24.8727 19.9845 28.3994 19.9845C30.9052 19.9845 32.5757 18.3449 32.6067 15.8391C32.6376 12.9621 32.6376 10.116 32.6067 7.23898C32.5757 4.73318 30.9052 3.09358 28.3994 3.09358C21.377 3.09358 14.3545 3.09358 7.3321 3.09358C4.79536 3.09358 3.15577 4.76411 3.12483 7.30085C3.12483 10.0851 3.12483 12.8693 3.12483 15.6535C3.12483 18.314 4.76443 19.9536 7.39397 19.9536C10.8897 19.9845 14.3855 19.9845 17.8503 19.9845Z" fill="#282828"/>
<path d="M17.8809 64.3766C14.4161 64.3766 10.9513 64.3766 7.48647 64.3766C3.00077 64.3457 0 61.3449 0 56.8592C0 54.1369 0 51.3836 0 48.6612C0 44.3302 3.03171 41.2676 7.36272 41.2676C14.3542 41.2676 21.3766 41.2676 28.3681 41.2676C32.6682 41.2676 35.6999 44.2684 35.7309 48.5684C35.7618 51.3836 35.7618 54.1987 35.7309 57.0139C35.6999 61.3449 32.6682 64.3766 28.3372 64.3766C24.8415 64.3766 21.3457 64.3766 17.8809 64.3766ZM17.819 44.3921C14.3542 44.3921 10.8894 44.3921 7.42459 44.3921C4.76411 44.3921 3.12452 46.0317 3.12452 48.6612C3.12452 51.4145 3.12452 54.1678 3.12452 56.9211C3.12452 59.6125 4.76411 61.2521 7.45553 61.2521C14.4161 61.2521 21.3457 61.2521 28.3063 61.2521C30.9667 61.2521 32.6063 59.6125 32.6063 56.983C32.6063 54.2297 32.6063 51.4764 32.6063 48.7231C32.6063 46.0317 30.9667 44.423 28.2753 44.423C24.7796 44.3612 21.2838 44.3921 17.819 44.3921Z" fill="#282828"/>
<path d="M15.9323 32.9164C15.9323 31.0603 15.9323 29.1732 15.9323 27.317C15.9323 26.389 16.3964 25.7703 17.1079 25.6156C18.1597 25.3681 19.0259 26.0796 19.0259 27.1933C19.0568 28.8638 19.0259 30.5344 19.0259 32.174C19.0259 32.4215 19.0259 32.6689 19.1806 33.0402C19.6137 32.5761 20.0468 32.1121 20.5108 31.6481C21.2842 30.9056 22.2123 30.8747 22.8619 31.5243C23.4807 32.143 23.4497 33.102 22.7382 33.8136C21.377 35.1747 20.0159 36.5359 18.6547 37.8971C17.8813 38.6705 17.0151 38.6396 16.2417 37.8971C14.8805 36.5359 13.5193 35.1747 12.1582 33.8136C11.4466 33.102 11.4466 32.143 12.0653 31.5243C12.6841 30.8747 13.6121 30.9056 14.3546 31.6171C14.8186 32.0812 15.2517 32.5761 15.6848 33.0402C15.8086 33.0092 15.8705 32.9783 15.9323 32.9164Z" fill="#282828"/>
<path d="M62.119 27.904C64.8104 27.904 67.4709 27.904 70.1623 27.904C70.4716 27.904 70.781 27.904 71.0904 27.9349C71.8019 28.0277 72.2969 28.6155 72.3587 29.327C72.4206 30.0695 71.9566 30.7501 71.245 30.9357C70.9357 31.0285 70.5644 31.0285 70.2551 31.0285C64.8413 31.0285 59.4276 31.0285 54.0138 31.0285C53.7972 31.0285 53.5807 31.0285 53.3951 30.9976C52.5289 30.9048 51.9411 30.2551 51.9102 29.4508C51.9102 28.6155 52.5289 27.9349 53.4569 27.904C55.3131 27.873 57.1383 27.873 58.9945 27.873C60.0463 27.904 61.0672 27.904 62.119 27.904Z" fill="#282828"/>
<path d="M17.9735 9.99219C20.7886 9.99219 23.6038 9.99219 26.388 9.99219C27.347 9.99219 28.0276 10.6109 28.0895 11.4771C28.1204 12.2196 27.5636 12.962 26.7902 13.0858C26.6046 13.1167 26.419 13.1167 26.2334 13.1167C20.6649 13.1167 15.0965 13.1167 9.52802 13.1167C8.38339 13.1167 7.67187 12.5289 7.67187 11.6008C7.64093 10.6109 8.35246 10.0231 9.55895 9.99219C12.3432 9.99219 15.1583 9.99219 17.9735 9.99219Z" fill="#282828"/>
<path d="M17.8185 51.2598C20.6646 51.2598 23.5417 51.2598 26.3878 51.2598C27.6252 51.2598 28.3986 52.3735 27.9346 53.4253C27.6561 54.0441 27.1302 54.3844 26.4496 54.3844C20.7265 54.3844 15.0034 54.3844 9.28026 54.3844C8.29031 54.3844 7.60973 53.7038 7.64066 52.7757C7.6716 51.9095 8.32125 51.2598 9.28026 51.2598C12.1264 51.2289 14.9724 51.2598 17.8185 51.2598Z" fill="#282828"/>
</g>
<defs>
<clipPath id="clip0_3582_3945">
<rect width="80" height="80" fill="white"/>
</clipPath>
</defs>
</svg>
